# 3ds Max Wavefront OBJ Exporter v0.97b - (c)2007 guruware
# 创建的文件:22.09.2014 19:35:43

mtllib floor.mtl

#
# object Plane01
#

v  -250.0000 0.0000 -250.0000
v  -250.0000 0.0000 250.0000
v  250.0000 0.0000 -250.0000
v  250.0000 0.0000 250.0000
# 4 vertices

vn 0.0000 1.0000 -0.0000
# 1 vertex normals

vt 0.0000 1.0000 0.0000
vt 0.0000 0.0000 0.0000
vt 1.0000 1.0000 0.0000
vt 1.0000 0.0000 0.0000
# 4 texture coords

g Plane01
usemtl 01___Default
s 1
f 1/1/1 2/2/1 3/3/1 
f 4/4/1 3/3/1 2/2/1 
# 2 faces

