# 3ds Max Wavefront OBJ Exporter v0.97b - (c)2007 guruware
# 创建的文件:21.09.2016 10:17:47

mtllib jiazijia.mtl

#
# object Cylinder001
#

v  -0.0671 -10.1942 0.0102
v  51.6160 -10.1942 -18.8009
v  54.9329 -10.1942 0.0102
v  42.0653 -10.1942 -35.3431
v  27.4329 -10.1942 -47.6212
v  9.4835 -10.1942 -54.1542
v  -9.6178 -10.1942 -54.1542
v  -27.5671 -10.1942 -47.6212
v  -42.1996 -10.1942 -35.3431
v  -51.7502 -10.1942 -18.8009
v  -55.0671 -10.1942 0.0102
v  -51.7502 -10.1942 18.8213
v  -42.1996 -10.1942 35.3635
v  -27.5671 -10.1942 47.6416
v  -9.6178 -10.1942 54.1746
v  9.4835 -10.1942 54.1746
v  27.4328 -10.1942 47.6416
v  42.0653 -10.1942 35.3635
v  51.6160 -10.1942 18.8213
v  51.6160 -5.9953 -18.8009
v  54.9329 -5.9953 0.0102
v  42.0653 -5.9953 -35.3431
v  27.4329 -5.9953 -47.6212
v  9.4835 -5.9953 -54.1542
v  -9.6178 -5.9953 -54.1542
v  -27.5671 -5.9953 -47.6212
v  -42.1996 -5.9953 -35.3431
v  -51.7502 -5.9953 -18.8009
v  -55.0671 -5.9953 0.0102
v  -51.7502 -5.9953 18.8213
v  -42.1996 -5.9953 35.3635
v  -27.5671 -5.9953 47.6416
v  -9.6178 -5.9953 54.1746
v  9.4835 -5.9953 54.1746
v  27.4328 -5.9953 47.6416
v  42.0653 -5.9953 35.3635
v  51.6160 -5.9953 18.8213
v  51.6160 -1.7964 -18.8009
v  54.9329 -1.7964 0.0102
v  42.0653 -1.7964 -35.3431
v  27.4329 -1.7964 -47.6212
v  9.4835 -1.7964 -54.1542
v  -9.6178 -1.7964 -54.1542
v  -27.5671 -1.7964 -47.6212
v  -42.1996 -1.7964 -35.3431
v  -51.7502 -1.7964 -18.8009
v  -55.0671 -1.7964 0.0102
v  -51.7502 -1.7964 18.8213
v  -42.1996 -1.7964 35.3635
v  -27.5671 -1.7964 47.6416
v  -9.6178 -1.7964 54.1746
v  9.4835 -1.7964 54.1746
v  27.4328 -1.7964 47.6416
v  42.0653 -1.7964 35.3635
v  51.6160 -1.7964 18.8213
v  51.6160 2.4024 -18.8009
v  54.9329 2.4024 0.0102
v  42.0653 2.4024 -35.3431
v  27.4329 2.4024 -47.6212
v  9.4835 2.4024 -54.1542
v  -9.6178 2.4024 -54.1542
v  -27.5671 2.4024 -47.6212
v  -42.1996 2.4024 -35.3431
v  -51.7502 2.4024 -18.8009
v  -55.0671 2.4024 0.0102
v  -51.7502 2.4024 18.8213
v  -42.1996 2.4024 35.3635
v  -27.5671 2.4024 47.6416
v  -9.6178 2.4024 54.1746
v  9.4835 2.4024 54.1746
v  27.4328 2.4024 47.6416
v  42.0653 2.4024 35.3635
v  51.6160 2.4024 18.8213
v  51.6160 6.6013 -18.8009
v  54.9329 6.6013 0.0102
v  42.0653 6.6013 -35.3431
v  27.4329 6.6013 -47.6212
v  9.4835 6.6013 -54.1542
v  -9.6178 6.6013 -54.1542
v  -27.5671 6.6013 -47.6212
v  -42.1996 6.6013 -35.3431
v  -51.7502 6.6013 -18.8009
v  -55.0671 6.6013 0.0102
v  -51.7502 6.6013 18.8213
v  -42.1996 6.6013 35.3635
v  -27.5671 6.6013 47.6416
v  -9.6178 6.6013 54.1746
v  9.4835 6.6013 54.1746
v  27.4328 6.6013 47.6416
v  42.0653 6.6013 35.3635
v  51.6160 6.6013 18.8213
v  51.6160 10.8001 -18.8009
v  54.9329 10.8001 0.0102
v  42.0653 10.8001 -35.3431
v  27.4329 10.8001 -47.6212
v  9.4835 10.8001 -54.1542
v  -9.6178 10.8001 -54.1542
v  -27.5671 10.8001 -47.6212
v  -42.1996 10.8001 -35.3431
v  -51.7502 10.8001 -18.8009
v  -55.0671 10.8001 0.0102
v  -51.7502 10.8001 18.8213
v  -42.1996 10.8001 35.3635
v  -27.5671 10.8001 47.6416
v  -9.6178 10.8001 54.1746
v  9.4835 10.8001 54.1746
v  27.4328 10.8001 47.6416
v  42.0653 10.8001 35.3635
v  51.6160 10.8001 18.8213
v  -0.0671 10.8001 0.0102
# 110 vertices

vn 0.0000 -1.0000 -0.0000
vn 1.0000 0.0000 0.0000
vn 0.9397 0.0000 -0.3420
vn 0.7660 0.0000 -0.6428
vn 0.5000 0.0000 -0.8660
vn 0.1736 0.0000 -0.9848
vn -0.1736 0.0000 -0.9848
vn -0.5000 0.0000 -0.8660
vn -0.7660 0.0000 -0.6428
vn -0.9397 0.0000 -0.3420
vn -1.0000 0.0000 -0.0000
vn -0.9397 0.0000 0.3420
vn -0.7660 0.0000 0.6428
vn -0.5000 0.0000 0.8660
vn -0.1736 0.0000 0.9848
vn 0.1736 0.0000 0.9848
vn 0.5000 0.0000 0.8660
vn 0.7660 0.0000 0.6428
vn 0.9397 0.0000 0.3420
vn 0.0000 1.0000 -0.0000
# 20 vertex normals

vt 0.5000 0.0000 0.0000
vt 0.8056 0.0000 1.0000
vt 0.7500 0.0000 1.0000
vt 0.8611 0.0000 1.0000
vt 0.9167 0.0000 1.0000
vt 0.9722 0.0000 1.0000
vt 0.0278 0.0000 1.0000
vt -0.0278 0.0000 1.0000
vt 0.0833 0.0000 1.0000
vt 0.1389 0.0000 1.0000
vt 0.1944 0.0000 1.0000
vt 0.2500 0.0000 1.0000
vt 0.3056 0.0000 1.0000
vt 0.3611 0.0000 1.0000
vt 0.4167 0.0000 1.0000
vt 0.4722 0.0000 1.0000
vt 0.5278 0.0000 1.0000
vt 0.5833 0.0000 1.0000
vt 0.6389 0.0000 1.0000
vt 0.6944 0.0000 1.0000
vt 0.8056 0.2000 1.0000
vt 0.7500 0.2000 1.0000
vt 0.8611 0.2000 1.0000
vt 0.9167 0.2000 1.0000
vt 0.9722 0.2000 1.0000
vt 0.0278 0.2000 1.0000
vt -0.0278 0.2000 1.0000
vt 0.0833 0.2000 1.0000
vt 0.1389 0.2000 1.0000
vt 0.1944 0.2000 1.0000
vt 0.2500 0.2000 1.0000
vt 0.3056 0.2000 1.0000
vt 0.3611 0.2000 1.0000
vt 0.4167 0.2000 1.0000
vt 0.4722 0.2000 1.0000
vt 0.5278 0.2000 1.0000
vt 0.5833 0.2000 1.0000
vt 0.6389 0.2000 1.0000
vt 0.6944 0.2000 1.0000
vt 0.8056 0.4000 1.0000
vt 0.7500 0.4000 1.0000
vt 0.8611 0.4000 1.0000
vt 0.9167 0.4000 1.0000
vt 0.9722 0.4000 1.0000
vt 0.0278 0.4000 1.0000
vt -0.0278 0.4000 1.0000
vt 0.0833 0.4000 1.0000
vt 0.1389 0.4000 1.0000
vt 0.1944 0.4000 1.0000
vt 0.2500 0.4000 1.0000
vt 0.3056 0.4000 1.0000
vt 0.3611 0.4000 1.0000
vt 0.4167 0.4000 1.0000
vt 0.4722 0.4000 1.0000
vt 0.5278 0.4000 1.0000
vt 0.5833 0.4000 1.0000
vt 0.6389 0.4000 1.0000
vt 0.6944 0.4000 1.0000
vt 0.8056 0.6000 1.0000
vt 0.7500 0.6000 1.0000
vt 0.8611 0.6000 1.0000
vt 0.9167 0.6000 1.0000
vt 0.9722 0.6000 1.0000
vt 0.0278 0.6000 1.0000
vt -0.0278 0.6000 1.0000
vt 0.0833 0.6000 1.0000
vt 0.1389 0.6000 1.0000
vt 0.1944 0.6000 1.0000
vt 0.2500 0.6000 1.0000
vt 0.3056 0.6000 1.0000
vt 0.3611 0.6000 1.0000
vt 0.4167 0.6000 1.0000
vt 0.4722 0.6000 1.0000
vt 0.5278 0.6000 1.0000
vt 0.5833 0.6000 1.0000
vt 0.6389 0.6000 1.0000
vt 0.6944 0.6000 1.0000
vt 0.8056 0.8000 1.0000
vt 0.7500 0.8000 1.0000
vt 0.8611 0.8000 1.0000
vt 0.9167 0.8000 1.0000
vt 0.9722 0.8000 1.0000
vt 0.0278 0.8000 1.0000
vt -0.0278 0.8000 1.0000
vt 0.0833 0.8000 1.0000
vt 0.1389 0.8000 1.0000
vt 0.1944 0.8000 1.0000
vt 0.2500 0.8000 1.0000
vt 0.3056 0.8000 1.0000
vt 0.3611 0.8000 1.0000
vt 0.4167 0.8000 1.0000
vt 0.4722 0.8000 1.0000
vt 0.5278 0.8000 1.0000
vt 0.5833 0.8000 1.0000
vt 0.6389 0.8000 1.0000
vt 0.6944 0.8000 1.0000
vt 0.8056 1.0000 1.0000
vt 0.7500 1.0000 1.0000
vt 0.8611 1.0000 1.0000
vt 0.9167 1.0000 1.0000
vt 0.9722 1.0000 1.0000
vt 0.0278 1.0000 1.0000
vt -0.0278 1.0000 1.0000
vt 0.0833 1.0000 1.0000
vt 0.1389 1.0000 1.0000
vt 0.1944 1.0000 1.0000
vt 0.2500 1.0000 1.0000
vt 0.3056 1.0000 1.0000
vt 0.3611 1.0000 1.0000
vt 0.4167 1.0000 1.0000
vt 0.4722 1.0000 1.0000
vt 0.5278 1.0000 1.0000
vt 0.5833 1.0000 1.0000
vt 0.6389 1.0000 1.0000
vt 0.6944 1.0000 1.0000
vt 0.5000 1.0000 0.0000
# 116 texture coords

g Cylinder001
usemtl Material__25
s 1
f 1/1/1 2/2/1 3/3/1 
f 1/1/1 4/4/1 2/2/1 
f 1/1/1 5/5/1 4/4/1 
f 1/1/1 6/6/1 5/5/1 
f 1/1/1 7/7/1 6/8/1 
f 1/1/1 8/9/1 7/7/1 
f 1/1/1 9/10/1 8/9/1 
f 1/1/1 10/11/1 9/10/1 
f 1/1/1 11/12/1 10/11/1 
f 1/1/1 12/13/1 11/12/1 
f 1/1/1 13/14/1 12/13/1 
f 1/1/1 14/15/1 13/14/1 
f 1/1/1 15/16/1 14/15/1 
f 1/1/1 16/17/1 15/16/1 
f 1/1/1 17/18/1 16/17/1 
f 1/1/1 18/19/1 17/18/1 
f 1/1/1 19/20/1 18/19/1 
f 1/1/1 3/3/1 19/20/1 
s 8
f 3/3/2 20/21/3 21/22/2 
f 3/3/2 2/2/3 20/21/3 
f 2/2/3 22/23/4 20/21/3 
f 2/2/3 4/4/4 22/23/4 
f 4/4/4 23/24/5 22/23/4 
f 4/4/4 5/5/5 23/24/5 
f 5/5/5 24/25/6 23/24/5 
f 5/5/5 6/6/6 24/25/6 
f 6/8/6 25/26/7 24/27/6 
f 6/8/6 7/7/7 25/26/7 
f 7/7/7 26/28/8 25/26/7 
f 7/7/7 8/9/8 26/28/8 
f 8/9/8 27/29/9 26/28/8 
f 8/9/8 9/10/9 27/29/9 
f 9/10/9 28/30/10 27/29/9 
f 9/10/9 10/11/10 28/30/10 
f 10/11/10 29/31/11 28/30/10 
f 10/11/10 11/12/11 29/31/11 
f 11/12/11 30/32/12 29/31/11 
f 11/12/11 12/13/12 30/32/12 
f 12/13/12 31/33/13 30/32/12 
f 12/13/12 13/14/13 31/33/13 
f 13/14/13 32/34/14 31/33/13 
f 13/14/13 14/15/14 32/34/14 
f 14/15/14 33/35/15 32/34/14 
f 14/15/14 15/16/15 33/35/15 
f 15/16/15 34/36/16 33/35/15 
f 15/16/15 16/17/16 34/36/16 
f 16/17/16 35/37/17 34/36/16 
f 16/17/16 17/18/17 35/37/17 
f 17/18/17 36/38/18 35/37/17 
f 17/18/17 18/19/18 36/38/18 
f 18/19/18 37/39/19 36/38/18 
f 18/19/18 19/20/19 37/39/19 
f 19/20/19 21/22/2 37/39/19 
f 19/20/19 3/3/2 21/22/2 
f 21/22/2 38/40/3 39/41/2 
f 21/22/2 20/21/3 38/40/3 
f 20/21/3 40/42/4 38/40/3 
f 20/21/3 22/23/4 40/42/4 
f 22/23/4 41/43/5 40/42/4 
f 22/23/4 23/24/5 41/43/5 
f 23/24/5 42/44/6 41/43/5 
f 23/24/5 24/25/6 42/44/6 
f 24/27/6 43/45/7 42/46/6 
f 24/27/6 25/26/7 43/45/7 
f 25/26/7 44/47/8 43/45/7 
f 25/26/7 26/28/8 44/47/8 
f 26/28/8 45/48/9 44/47/8 
f 26/28/8 27/29/9 45/48/9 
f 27/29/9 46/49/10 45/48/9 
f 27/29/9 28/30/10 46/49/10 
f 28/30/10 47/50/11 46/49/10 
f 28/30/10 29/31/11 47/50/11 
f 29/31/11 48/51/12 47/50/11 
f 29/31/11 30/32/12 48/51/12 
f 30/32/12 49/52/13 48/51/12 
f 30/32/12 31/33/13 49/52/13 
f 31/33/13 50/53/14 49/52/13 
f 31/33/13 32/34/14 50/53/14 
f 32/34/14 51/54/15 50/53/14 
f 32/34/14 33/35/15 51/54/15 
f 33/35/15 52/55/16 51/54/15 
f 33/35/15 34/36/16 52/55/16 
f 34/36/16 53/56/17 52/55/16 
f 34/36/16 35/37/17 53/56/17 
f 35/37/17 54/57/18 53/56/17 
f 35/37/17 36/38/18 54/57/18 
f 36/38/18 55/58/19 54/57/18 
f 36/38/18 37/39/19 55/58/19 
f 37/39/19 39/41/2 55/58/19 
f 37/39/19 21/22/2 39/41/2 
f 39/41/2 56/59/3 57/60/2 
f 39/41/2 38/40/3 56/59/3 
f 38/40/3 58/61/4 56/59/3 
f 38/40/3 40/42/4 58/61/4 
f 40/42/4 59/62/5 58/61/4 
f 40/42/4 41/43/5 59/62/5 
f 41/43/5 60/63/6 59/62/5 
f 41/43/5 42/44/6 60/63/6 
f 42/46/6 61/64/7 60/65/6 
f 42/46/6 43/45/7 61/64/7 
f 43/45/7 62/66/8 61/64/7 
f 43/45/7 44/47/8 62/66/8 
f 44/47/8 63/67/9 62/66/8 
f 44/47/8 45/48/9 63/67/9 
f 45/48/9 64/68/10 63/67/9 
f 45/48/9 46/49/10 64/68/10 
f 46/49/10 65/69/11 64/68/10 
f 46/49/10 47/50/11 65/69/11 
f 47/50/11 66/70/12 65/69/11 
f 47/50/11 48/51/12 66/70/12 
f 48/51/12 67/71/13 66/70/12 
f 48/51/12 49/52/13 67/71/13 
f 49/52/13 68/72/14 67/71/13 
f 49/52/13 50/53/14 68/72/14 
f 50/53/14 69/73/15 68/72/14 
f 50/53/14 51/54/15 69/73/15 
f 51/54/15 70/74/16 69/73/15 
f 51/54/15 52/55/16 70/74/16 
f 52/55/16 71/75/17 70/74/16 
f 52/55/16 53/56/17 71/75/17 
f 53/56/17 72/76/18 71/75/17 
f 53/56/17 54/57/18 72/76/18 
f 54/57/18 73/77/19 72/76/18 
f 54/57/18 55/58/19 73/77/19 
f 55/58/19 57/60/2 73/77/19 
f 55/58/19 39/41/2 57/60/2 
f 57/60/2 74/78/3 75/79/2 
f 57/60/2 56/59/3 74/78/3 
f 56/59/3 76/80/4 74/78/3 
f 56/59/3 58/61/4 76/80/4 
f 58/61/4 77/81/5 76/80/4 
f 58/61/4 59/62/5 77/81/5 
f 59/62/5 78/82/6 77/81/5 
f 59/62/5 60/63/6 78/82/6 
f 60/65/6 79/83/7 78/84/6 
f 60/65/6 61/64/7 79/83/7 
f 61/64/7 80/85/8 79/83/7 
f 61/64/7 62/66/8 80/85/8 
f 62/66/8 81/86/9 80/85/8 
f 62/66/8 63/67/9 81/86/9 
f 63/67/9 82/87/10 81/86/9 
f 63/67/9 64/68/10 82/87/10 
f 64/68/10 83/88/11 82/87/10 
f 64/68/10 65/69/11 83/88/11 
f 65/69/11 84/89/12 83/88/11 
f 65/69/11 66/70/12 84/89/12 
f 66/70/12 85/90/13 84/89/12 
f 66/70/12 67/71/13 85/90/13 
f 67/71/13 86/91/14 85/90/13 
f 67/71/13 68/72/14 86/91/14 
f 68/72/14 87/92/15 86/91/14 
f 68/72/14 69/73/15 87/92/15 
f 69/73/15 88/93/16 87/92/15 
f 69/73/15 70/74/16 88/93/16 
f 70/74/16 89/94/17 88/93/16 
f 70/74/16 71/75/17 89/94/17 
f 71/75/17 90/95/18 89/94/17 
f 71/75/17 72/76/18 90/95/18 
f 72/76/18 91/96/19 90/95/18 
f 72/76/18 73/77/19 91/96/19 
f 73/77/19 75/79/2 91/96/19 
f 73/77/19 57/60/2 75/79/2 
f 75/79/2 92/97/3 93/98/2 
f 75/79/2 74/78/3 92/97/3 
f 74/78/3 94/99/4 92/97/3 
f 74/78/3 76/80/4 94/99/4 
f 76/80/4 95/100/5 94/99/4 
f 76/80/4 77/81/5 95/100/5 
f 77/81/5 96/101/6 95/100/5 
f 77/81/5 78/82/6 96/101/6 
f 78/84/6 97/102/7 96/103/6 
f 78/84/6 79/83/7 97/102/7 
f 79/83/7 98/104/8 97/102/7 
f 79/83/7 80/85/8 98/104/8 
f 80/85/8 99/105/9 98/104/8 
f 80/85/8 81/86/9 99/105/9 
f 81/86/9 100/106/10 99/105/9 
f 81/86/9 82/87/10 100/106/10 
f 82/87/10 101/107/11 100/106/10 
f 82/87/10 83/88/11 101/107/11 
f 83/88/11 102/108/12 101/107/11 
f 83/88/11 84/89/12 102/108/12 
f 84/89/12 103/109/13 102/108/12 
f 84/89/12 85/90/13 103/109/13 
f 85/90/13 104/110/14 103/109/13 
f 85/90/13 86/91/14 104/110/14 
f 86/91/14 105/111/15 104/110/14 
f 86/91/14 87/92/15 105/111/15 
f 87/92/15 106/112/16 105/111/15 
f 87/92/15 88/93/16 106/112/16 
f 88/93/16 107/113/17 106/112/16 
f 88/93/16 89/94/17 107/113/17 
f 89/94/17 108/114/18 107/113/17 
f 89/94/17 90/95/18 108/114/18 
f 90/95/18 109/115/19 108/114/18 
f 90/95/18 91/96/19 109/115/19 
f 91/96/19 93/98/2 109/115/19 
f 91/96/19 75/79/2 93/98/2 
s 1
f 110/116/20 93/98/20 92/97/20 
f 110/116/20 92/97/20 94/99/20 
f 110/116/20 94/99/20 95/100/20 
f 110/116/20 95/100/20 96/101/20 
f 110/116/20 96/103/20 97/102/20 
f 110/116/20 97/102/20 98/104/20 
f 110/116/20 98/104/20 99/105/20 
f 110/116/20 99/105/20 100/106/20 
f 110/116/20 100/106/20 101/107/20 
f 110/116/20 101/107/20 102/108/20 
f 110/116/20 102/108/20 103/109/20 
f 110/116/20 103/109/20 104/110/20 
f 110/116/20 104/110/20 105/111/20 
f 110/116/20 105/111/20 106/112/20 
f 110/116/20 106/112/20 107/113/20 
f 110/116/20 107/113/20 108/114/20 
f 110/116/20 108/114/20 109/115/20 
f 110/116/20 109/115/20 93/98/20 
# 216 faces

#
# object Box001
#

v  -14.7664 -9.6112 70.2109
v  -14.7664 -9.6112 -69.7891
v  15.2336 -9.6112 -69.7891
v  15.2336 -9.6112 70.2109
v  -14.7664 10.3888 70.2109
v  15.2336 10.3888 70.2109
v  15.2336 10.3888 -69.7891
v  -14.7664 10.3888 -69.7891
# 8 vertices

vn 0.0000 -1.0000 -0.0000
vn 0.0000 1.0000 -0.0000
vn 0.0000 0.0000 1.0000
vn 1.0000 0.0000 -0.0000
vn 0.0000 0.0000 -1.0000
vn -1.0000 0.0000 -0.0000
# 6 vertex normals

vt 1.0000 0.0000 0.0000
vt 1.0000 1.0000 0.0000
vt 0.0000 1.0000 0.0000
vt 0.0000 0.0000 0.0000
# 4 texture coords

g Box001
usemtl Material__26
s 2
f 111/117/21 112/118/21 113/119/21 
f 113/119/21 114/120/21 111/117/21 
s 4
f 115/120/22 116/117/22 117/118/22 
f 117/118/22 118/119/22 115/120/22 
s 8
f 111/120/23 114/117/23 116/118/23 
f 116/118/23 115/119/23 111/120/23 
s 16
f 114/120/24 113/117/24 117/118/24 
f 117/118/24 116/119/24 114/120/24 
s 32
f 113/120/25 112/117/25 118/118/25 
f 118/118/25 117/119/25 113/120/25 
s 64
f 112/120/26 111/117/26 115/118/26 
f 115/118/26 118/119/26 112/120/26 
# 12 faces

#
# object Box002
#

v  70.3143 -9.6112 14.8295
v  -69.6837 -9.6112 15.5918
v  -69.8470 -9.6112 -14.4077
v  70.1509 -9.6112 -15.1701
v  70.3143 10.3888 14.8295
v  70.1509 10.3888 -15.1701
v  -69.8470 10.3888 -14.4077
v  -69.6837 10.3888 15.5918
# 8 vertices

vn 0.0000 -1.0000 -0.0000
vn 0.0000 1.0000 -0.0000
vn 1.0000 0.0000 -0.0054
vn -0.0054 0.0000 -1.0000
vn -1.0000 0.0000 0.0054
vn 0.0054 0.0000 1.0000
# 6 vertex normals

vt 1.0000 0.0000 0.0000
vt 1.0000 1.0000 0.0000
vt 0.0000 1.0000 0.0000
vt 0.0000 0.0000 0.0000
# 4 texture coords

g Box002
usemtl Material__28
s 2
f 119/121/27 120/122/27 121/123/27 
f 121/123/27 122/124/27 119/121/27 
s 4
f 123/124/28 124/121/28 125/122/28 
f 125/122/28 126/123/28 123/124/28 
s 8
f 119/124/29 122/121/29 124/122/29 
f 124/122/29 123/123/29 119/124/29 
s 16
f 122/124/30 121/121/30 125/122/30 
f 125/122/30 124/123/30 122/124/30 
s 32
f 121/124/31 120/121/31 126/122/31 
f 126/122/31 125/123/31 121/124/31 
s 64
f 120/124/32 119/121/32 123/122/32 
f 123/122/32 126/123/32 120/124/32 
# 12 faces

#
# object Box003
#

v  39.1495 -9.6112 60.2988
v  -59.8866 -9.6112 -38.6550
v  -38.6823 -9.6112 -59.8770
v  60.3539 -9.6112 39.0767
v  39.1495 10.3888 60.2988
v  60.3539 10.3888 39.0767
v  -38.6823 10.3888 -59.8770
v  -59.8866 10.3888 -38.6550
# 8 vertices

vn 0.0000 -1.0000 -0.0000
vn 0.0000 1.0000 -0.0000
vn 0.7074 0.0000 0.7068
vn 0.7068 0.0000 -0.7074
vn -0.7074 0.0000 -0.7068
vn -0.7068 0.0000 0.7074
# 6 vertex normals

vt 1.0000 0.0000 0.0000
vt 1.0000 1.0000 0.0000
vt 0.0000 1.0000 0.0000
vt 0.0000 0.0000 0.0000
# 4 texture coords

g Box003
usemtl Material__29
s 2
f 127/125/33 128/126/33 129/127/33 
f 129/127/33 130/128/33 127/125/33 
s 4
f 131/128/34 132/125/34 133/126/34 
f 133/126/34 134/127/34 131/128/34 
s 8
f 127/128/35 130/125/35 132/126/35 
f 132/126/35 131/127/35 127/128/35 
s 16
f 130/128/36 129/125/36 133/126/36 
f 133/126/36 132/127/36 130/128/36 
s 32
f 129/128/37 128/125/37 134/126/37 
f 134/126/37 133/127/37 129/128/37 
s 64
f 128/128/38 127/125/38 131/126/38 
f 131/126/38 134/127/38 128/128/38 
# 12 faces

#
# object Box004
#

v  60.1251 -9.6112 -39.0066
v  -38.3295 -9.6112 60.5257
v  -59.6579 -9.6112 39.4283
v  38.7968 -9.6112 -60.1040
v  60.1251 10.3888 -39.0066
v  38.7968 10.3888 -60.1040
v  -59.6579 10.3888 39.4283
v  -38.3295 10.3888 60.5257
# 8 vertices

vn 0.0000 -1.0000 -0.0000
vn 0.0000 1.0000 -0.0000
vn 0.7032 0.0000 -0.7109
vn -0.7109 0.0000 -0.7032
vn -0.7032 0.0000 0.7109
vn 0.7109 0.0000 0.7032
# 6 vertex normals

vt 1.0000 0.0000 0.0000
vt 1.0000 1.0000 0.0000
vt 0.0000 1.0000 0.0000
vt 0.0000 0.0000 0.0000
# 4 texture coords

g Box004
usemtl Material__27
s 2
f 135/129/39 136/130/39 137/131/39 
f 137/131/39 138/132/39 135/129/39 
s 4
f 139/132/40 140/129/40 141/130/40 
f 141/130/40 142/131/40 139/132/40 
s 8
f 135/132/41 138/129/41 140/130/41 
f 140/130/41 139/131/41 135/132/41 
s 16
f 138/132/42 137/129/42 141/130/42 
f 141/130/42 140/131/42 138/132/42 
s 32
f 137/132/43 136/129/43 142/130/43 
f 142/130/43 141/131/43 137/132/43 
s 64
f 136/132/44 135/129/44 139/130/44 
f 139/130/44 142/131/44 136/132/44 
# 12 faces

