# 3ds Max Wavefront OBJ Exporter v0.97b - (c)2007 guruware
# 创建的文件:18.07.2015 20:00:34

mtllib mushroom5.mtl

#
# object Mushroom05
#

v  0.3144 1.8684 0.0360
v  0.4812 1.0866 0.1014
v  0.4872 1.0908 -0.2460
v  0.3048 1.8678 -0.1890
v  -0.4890 0.5130 0.0816
v  -0.3192 0.0048 0.0306
v  -0.1758 0.0048 0.2424
v  -0.2556 0.5196 0.3864
v  0.2880 0.5112 -0.4278
v  0.1986 0.0048 -0.2820
v  -0.1110 0.0030 -0.3324
v  -0.1470 0.4872 -0.4800
v  0.1536 1.8606 0.2394
v  0.2052 1.0818 0.3954
v  0.4878 0.5250 -0.2448
v  0.3108 0.0048 -0.1830
v  -0.4272 0.4914 -0.2724
v  -0.2748 0.0036 -0.1998
v  -0.1536 1.8462 0.2316
v  -0.2466 1.0860 0.3822
v  -0.2940 1.8396 0.0360
v  -0.4818 1.0794 0.0858
v  0.2892 1.0776 -0.4314
v  0.2076 1.8636 -0.2814
v  -0.1284 1.0536 -0.4794
v  -0.0690 1.8498 -0.3282
v  -0.4206 1.0578 -0.2682
v  -0.2496 1.8414 -0.1914
v  0.1482 0.0036 0.2562
v  0.2058 0.5148 0.4020
v  0.4830 0.5202 0.1038
v  0.3192 0.0042 0.0468
v  0.3714 3.2352 0.0228
v  0.7158 2.6328 0.0912
v  0.7230 2.6412 -0.1908
v  0.3786 3.2376 -0.1422
v  -0.4032 3.3072 -0.1260
v  -0.6162 3.0648 0.0978
v  -0.5010 3.0924 0.3156
v  -0.2292 3.3426 0.1860
v  -0.0102 2.4792 -0.7926
v  0.0354 1.7796 -1.2516
v  -0.5496 1.6770 -1.1742
v  -0.3768 2.3994 -0.7872
v  -0.1104 3.2592 -0.3660
v  -0.2736 3.0504 -0.5100
v  -0.4908 3.0402 -0.3708
v  0.0486 3.3924 -0.0870
v  -0.1272 3.1500 0.4548
v  -0.0120 2.5086 0.7026
v  0.3438 2.5596 0.6186
v  0.0840 3.1764 0.3840
v  -0.5898 3.0390 -0.2328
v  -0.6312 3.0510 -0.0768
v  -0.7746 2.3796 0.1962
v  -1.2342 1.5564 0.3558
v  -1.0398 1.5912 0.8100
v  -0.6360 2.4108 0.4560
v  0.3492 2.5596 -0.6660
v  0.7092 1.8984 -1.1028
v  0.1068 1.7922 1.2522
v  0.7164 1.8996 1.0776
v  0.5988 2.6028 0.3840
v  0.2862 3.2130 0.1962
v  1.1034 1.9680 0.6744
v  1.3236 2.0064 0.1704
v  0.6090 2.6190 -0.4452
v  1.2018 1.9848 -0.7512
v  -0.7884 2.3424 -0.3726
v  -1.1490 1.5714 -0.5778
v  -1.2636 1.5516 -0.1296
v  -0.8196 2.3586 -0.0846
v  -0.9234 1.6110 -0.9354
v  -0.6546 2.3490 -0.6294
v  0.3006 3.2142 -0.2946
v  0.1236 3.1404 -0.4674
v  -0.3402 3.1212 0.4302
v  -0.3774 2.4540 0.6372
v  -0.0744 3.0936 -0.5304
v  -0.5856 1.6710 1.1442
v  1.3842 2.0172 -0.3120
# 81 vertices

vn 0.9235 0.2335 0.3044
vn 0.9224 0.1063 0.3713
vn 0.9139 0.1138 -0.3897
vn 0.8815 0.2354 -0.4094
vn -0.9601 -0.1484 0.2371
vn -0.9227 -0.3362 0.1886
vn -0.4504 -0.3190 0.8339
vn -0.4537 -0.1413 0.8799
vn 0.4240 -0.1566 -0.8920
vn 0.4054 -0.3118 -0.8593
vn -0.2518 -0.3052 -0.9184
vn -0.2561 -0.1480 -0.9553
vn 0.4117 0.2207 0.8842
vn 0.3805 0.1061 0.9187
vn 0.9075 -0.1627 -0.3873
vn 0.8535 -0.3287 -0.4044
vn -0.8438 -0.1510 -0.5149
vn -0.8054 -0.3169 -0.5009
vn -0.4469 0.2247 0.8659
vn -0.4478 0.1222 0.8857
vn -0.9477 0.2388 0.2119
vn -0.9619 0.1299 0.2407
vn 0.4149 0.1019 -0.9042
vn 0.4295 0.2022 -0.8802
vn -0.2503 0.1021 -0.9628
vn -0.2193 0.2031 -0.9543
vn -0.8426 0.1165 -0.5259
vn -0.8220 0.2296 -0.5211
vn 0.3967 -0.2949 0.8693
vn 0.3832 -0.1438 0.9124
vn 0.9184 -0.1565 0.3634
vn 0.8980 -0.3063 0.3158
vn 0.6545 0.7245 0.2162
vn 0.7589 0.6172 0.2076
vn 0.7555 0.6342 -0.1640
vn 0.6642 0.7248 -0.1830
vn -0.4903 0.8488 -0.1981
vn -0.8438 0.4928 0.2124
vn -0.6845 0.5214 0.5095
vn -0.2020 0.9187 0.3393
vn 0.0350 0.4703 -0.8818
vn -0.0628 0.5545 -0.8298
vn -0.3817 0.5148 -0.7677
vn -0.3172 0.4574 -0.8308
vn -0.0999 0.8140 -0.5722
vn -0.3450 0.5484 -0.7617
vn -0.5956 0.5235 -0.6092
vn 0.1445 0.9862 -0.0804
vn 0.0016 0.6000 0.8000
vn -0.0415 0.4867 0.8726
vn 0.3288 0.5596 0.7607
vn 0.3034 0.6775 0.6700
vn -0.8022 0.4595 -0.3812
vn -0.8862 0.4527 -0.0986
vn -0.8812 0.3997 0.2523
vn -0.8456 0.5005 0.1854
vn -0.6968 0.5389 0.4733
vn -0.7116 0.4272 0.5579
vn 0.3223 0.5293 -0.7848
vn 0.2317 0.6266 -0.7441
vn -0.0610 0.6017 0.7964
vn 0.2988 0.6552 0.6938
vn 0.6172 0.5994 0.5096
vn 0.5064 0.7155 0.4812
vn 0.5692 0.6762 0.4677
vn 0.6873 0.6932 0.2170
vn 0.5811 0.6029 -0.5467
vn 0.5065 0.7067 -0.4940
vn -0.8668 0.4121 -0.2808
vn -0.8269 0.4650 -0.3162
vn -0.8773 0.4751 -0.0675
vn -0.9201 0.3916 -0.0106
vn -0.6637 0.4842 -0.5701
vn -0.6681 0.4454 -0.5961
vn 0.4753 0.6959 -0.5383
vn 0.2785 0.6152 -0.7375
vn -0.3768 0.5409 0.7519
vn -0.3996 0.4457 0.8010
vn -0.0228 0.5489 -0.8356
vn -0.4097 0.5675 0.7142
vn 0.6756 0.7275 -0.1196
vn 0.1733 -0.9849 -0.0000
vn 0.1732 -0.9849 -0.0000
vn 0.1731 -0.9849 0.0001
vn 0.1732 -0.9849 0.0001
vn 0.1733 -0.9849 0.0002
# 86 vertex normals

vt 0.7356 0.8501 0.0000
vt 0.7356 0.7670 0.0000
vt 0.7399 0.7671 0.0000
vt 0.7399 0.8501 0.0000
vt 0.7565 0.7108 0.0000
vt 0.7565 0.6641 0.0000
vt 0.7608 0.6641 0.0000
vt 0.7608 0.7110 0.0000
vt 0.7432 0.7108 0.0000
vt 0.7432 0.6641 0.0000
vt 0.7482 0.6641 0.0000
vt 0.7482 0.7100 0.0000
vt 0.7310 0.8501 0.0000
vt 0.7310 0.7671 0.0000
vt 0.7399 0.7112 0.0000
vt 0.7399 0.6641 0.0000
vt 0.7522 0.7101 0.0000
vt 0.7522 0.6641 0.0000
vt 0.7259 0.8501 0.0000
vt 0.7259 0.7676 0.0000
vt 0.7565 0.8501 0.0000
vt 0.7565 0.7676 0.0000
vt 0.7608 0.7676 0.0000
vt 0.7608 0.8501 0.0000
vt 0.7432 0.7669 0.0000
vt 0.7432 0.8501 0.0000
vt 0.7482 0.7666 0.0000
vt 0.7482 0.8501 0.0000
vt 0.7522 0.7669 0.0000
vt 0.7522 0.8501 0.0000
vt 0.7259 0.7110 0.0000
vt 0.7259 0.6641 0.0000
vt 0.7310 0.6641 0.0000
vt 0.7310 0.7109 0.0000
vt 0.7356 0.7111 0.0000
vt 0.7356 0.6641 0.0000
vt 0.9220 0.6630 0.0000
vt 0.9361 0.6752 0.0000
vt 0.9075 0.6867 0.0000
vt 0.9034 0.6715 0.0000
vt 0.8671 0.5902 0.0000
vt 0.8781 0.5498 0.0000
vt 0.9088 0.5530 0.0000
vt 0.9171 0.5936 0.0000
vt 0.8155 0.6426 0.0000
vt 0.8016 0.6461 0.0000
vt 0.7885 0.6046 0.0000
vt 0.8014 0.6082 0.0000
vt 0.8529 0.6311 0.0000
vt 0.8232 0.6157 0.0000
vt 0.8269 0.5858 0.0000
vt 0.8944 0.6397 0.0000
vt 0.9439 0.5887 0.0000
vt 0.9613 0.5801 0.0000
vt 0.9687 0.6172 0.0000
vt 0.9487 0.6154 0.0000
vt 0.8389 0.5678 0.0000
vt 0.8568 0.5559 0.0000
vt 0.8780 0.5272 0.0000
vt 0.8745 0.5111 0.0000
vt 0.9107 0.5135 0.0000
vt 0.9091 0.5302 0.0000
vt 0.8445 0.6706 0.0000
vt 0.8358 0.6824 0.0000
vt 0.9755 0.5717 0.0000
vt 0.9838 0.6145 0.0000
vt 0.9592 0.6508 0.0000
vt 0.9379 0.6466 0.0000
vt 0.9737 0.6530 0.0000
vt 0.9486 0.6849 0.0000
vt 0.8779 0.6855 0.0000
vt 0.8769 0.7007 0.0000
vt 0.8222 0.5519 0.0000
vt 0.8124 0.5433 0.0000
vt 0.8401 0.5222 0.0000
vt 0.8482 0.5352 0.0000
vt 0.7944 0.5708 0.0000
vt 0.8047 0.5762 0.0000
vt 0.8820 0.6715 0.0000
vt 0.8518 0.6594 0.0000
vt 0.9290 0.5660 0.0000
vt 0.9385 0.5474 0.0000
vt 0.8325 0.6396 0.0000
vt 0.9463 0.5330 0.0000
vt 0.9144 0.7011 0.0000
vt 0.6962 0.8953 0.0000
vt 0.6798 0.9392 0.0000
vt 0.6499 0.9695 0.0000
vt 0.6159 0.9787 0.0000
vt 0.5806 0.9715 0.0000
vt 0.5449 0.9537 0.0000
vt 0.5177 0.9253 0.0000
vt 0.5090 0.8835 0.0000
vt 0.5221 0.8378 0.0000
vt 0.5504 0.8094 0.0000
vt 0.5860 0.7992 0.0000
vt 0.6226 0.8005 0.0000
vt 0.6553 0.8113 0.0000
vt 0.6802 0.8289 0.0000
vt 0.6951 0.8557 0.0000
# 100 texture coords

g Mushroom05
usemtl 01___Default
s 1
f 1/1/1 2/2/2 3/3/3 
f 3/3/3 4/4/4 1/1/1 
f 5/5/5 6/6/6 7/7/7 
f 7/7/7 8/8/8 5/5/5 
f 9/9/9 10/10/10 11/11/11 
f 11/11/11 12/12/12 9/9/9 
f 13/13/13 14/14/14 2/2/2 
f 2/2/2 1/1/1 13/13/13 
f 15/15/15 16/16/16 10/10/10 
f 10/10/10 9/9/9 15/15/15 
f 17/17/17 18/18/18 6/6/6 
f 6/6/6 5/5/5 17/17/17 
f 12/12/12 11/11/11 18/18/18 
f 18/18/18 17/17/17 12/12/12 
f 19/19/19 20/20/20 14/14/14 
f 14/14/14 13/13/13 19/19/19 
f 21/21/21 22/22/22 20/23/20 
f 20/23/20 19/24/19 21/21/21 
f 4/4/4 3/3/3 23/25/23 
f 23/25/23 24/26/24 4/4/4 
f 24/26/24 23/25/23 25/27/25 
f 25/27/25 26/28/26 24/26/24 
f 26/28/26 25/27/25 27/29/27 
f 27/29/27 28/30/28 26/28/26 
f 28/30/28 27/29/27 22/22/22 
f 22/22/22 21/21/21 28/30/28 
f 8/31/8 7/32/7 29/33/29 
f 29/33/29 30/34/30 8/31/8 
f 31/35/31 32/36/32 16/16/16 
f 16/16/16 15/15/15 31/35/31 
f 30/34/30 29/33/29 32/36/32 
f 32/36/32 31/35/31 30/34/30 
f 12/12/12 25/27/25 23/25/23 
f 23/25/23 9/9/9 12/12/12 
f 8/8/8 20/23/20 22/22/22 
f 22/22/22 5/5/5 8/8/8 
f 14/14/14 30/34/30 31/35/31 
f 31/35/31 2/2/2 14/14/14 
f 5/5/5 22/22/22 27/29/27 
f 27/29/27 17/17/17 5/5/5 
f 17/17/17 27/29/27 25/27/25 
f 25/27/25 12/12/12 17/17/17 
f 30/34/30 14/14/14 20/20/20 
f 20/20/20 8/31/8 30/34/30 
f 15/15/15 3/3/3 2/2/2 
f 2/2/2 31/35/31 15/15/15 
f 9/9/9 23/25/23 3/3/3 
f 3/3/3 15/15/15 9/9/9 
f 33/37/33 34/38/34 35/39/35 
f 35/39/35 36/40/36 33/37/33 
f 37/41/37 38/42/38 39/43/39 
f 39/43/39 40/44/40 37/41/37 
f 41/45/41 42/46/42 43/47/43 
f 43/47/43 44/48/44 41/45/41 
f 45/49/45 46/50/46 47/51/47 
f 47/51/47 37/41/37 45/49/45 
f 33/37/33 36/40/36 48/52/48 
f 49/53/49 50/54/50 51/55/51 
f 51/55/51 52/56/52 49/53/49 
f 53/57/53 54/58/54 37/41/37 
f 55/59/55 56/60/56 57/61/57 
f 57/61/57 58/62/58 55/59/55 
f 59/63/59 60/64/60 42/46/42 
f 42/46/42 41/45/41 59/63/59 
f 50/54/50 61/65/61 62/66/62 
f 62/66/62 51/55/51 50/54/50 
f 52/56/52 51/55/51 63/67/63 
f 63/67/63 64/68/64 52/56/52 
f 63/67/63 65/69/65 66/70/66 
f 66/70/66 34/38/34 63/67/63 
f 67/71/67 68/72/68 60/64/60 
f 60/64/60 59/63/59 67/71/67 
f 69/73/69 70/74/70 71/75/71 
f 71/75/71 72/76/72 69/73/69 
f 44/48/44 43/47/43 73/77/73 
f 73/77/73 74/78/74 44/48/44 
f 48/52/48 75/79/75 76/80/76 
f 76/80/76 45/49/45 48/52/48 
f 40/44/40 77/81/77 49/53/49 
f 77/81/77 78/82/78 50/54/50 
f 50/54/50 49/53/49 77/81/77 
f 38/42/38 55/59/55 58/62/58 
f 58/62/58 39/43/39 38/42/38 
f 75/79/75 67/71/67 59/63/59 
f 59/63/59 76/80/76 75/79/75 
f 36/40/36 35/39/35 67/71/67 
f 67/71/67 75/79/75 36/40/36 
f 76/80/76 59/63/59 41/45/41 
f 41/45/41 79/83/79 76/80/76 
f 46/50/46 44/48/44 74/78/74 
f 74/78/74 47/51/47 46/50/46 
f 40/44/40 52/56/52 64/68/64 
f 64/68/64 48/52/48 40/44/40 
f 53/57/53 69/73/69 72/76/72 
f 72/76/72 54/58/54 53/57/53 
f 78/82/78 80/84/80 61/65/61 
f 61/65/61 50/54/50 78/82/78 
f 35/39/35 81/85/81 68/72/68 
f 68/72/68 67/71/67 35/39/35 
f 34/38/34 66/70/66 81/85/81 
f 81/85/81 35/39/35 34/38/34 
f 58/62/58 57/61/57 80/84/80 
f 80/84/80 78/82/78 58/62/58 
f 39/43/39 58/62/58 78/82/78 
f 78/82/78 77/81/77 39/43/39 
f 51/55/51 62/66/62 65/69/65 
f 65/69/65 63/67/63 51/55/51 
f 45/49/45 76/80/76 79/83/79 
f 37/41/37 48/52/48 45/49/45 
f 79/83/79 41/45/41 44/48/44 
f 44/48/44 46/50/46 79/83/79 
f 40/44/40 49/53/49 52/56/52 
f 48/52/48 36/40/36 75/79/75 
f 72/76/72 71/75/71 56/60/56 
f 56/60/56 55/59/55 72/76/72 
f 54/58/54 72/76/72 55/59/55 
f 55/59/55 38/42/38 54/58/54 
f 40/44/40 39/43/39 77/81/77 
f 37/41/37 40/44/40 48/52/48 
f 64/68/64 63/67/63 34/38/34 
f 34/38/34 33/37/33 64/68/64 
f 74/78/74 73/77/73 70/74/70 
f 70/74/70 69/73/69 74/78/74 
f 47/51/47 74/78/74 69/73/69 
f 69/73/69 53/57/53 47/51/47 
f 45/49/45 79/83/79 46/50/46 
f 37/41/37 54/58/54 38/42/38 
f 48/52/48 64/68/64 33/37/33 
f 37/41/37 47/51/47 53/57/53 
s off
f 42/86/82 60/87/82 68/88/82 
f 42/86/82 68/88/82 81/89/82 
f 42/86/82 81/89/82 66/90/82 
f 42/86/82 66/90/82 65/91/82 
f 42/86/83 65/91/83 62/92/83 
f 42/86/84 62/92/84 61/93/84 
f 42/86/85 61/93/85 80/94/85 
f 42/86/85 80/94/85 57/95/85 
f 42/86/85 57/95/85 56/96/85 
f 42/86/85 56/96/85 71/97/85 
f 42/86/86 71/97/86 70/98/86 
f 42/86/86 70/98/86 73/99/86 
f 42/86/86 73/99/86 43/100/86 
# 142 faces

