# 3ds Max Wavefront OBJ Exporter v0.97b - (c)2007 guruware
# 创建的文件:18.07.2015 19:58:19

mtllib table.mtl

#
# object Table01
#

v  -4.9495 0.8615 3.5455
v  -4.9495 0.8615 -3.3206
v  -5.0830 0.8566 -3.3403
v  -5.0830 0.8566 3.5651
v  -4.9774 0.5566 -3.4016
v  -5.1107 0.5614 -3.4191
v  -4.9774 0.5566 3.6265
v  -5.1107 0.5614 3.6439
v  -5.5679 0.7706 0.4649
v  -2.1416 0.5261 0.4248
v  -2.1416 0.5242 -0.3312
v  -5.5667 0.7688 -0.3881
v  5.5679 0.7706 0.4651
v  5.5807 0.6475 0.4684
v  5.5789 0.6494 -0.3928
v  5.5667 0.7688 -0.3883
v  2.1465 0.4028 0.4279
v  2.1465 0.4048 -0.3353
v  -5.5805 0.6475 0.4682
v  -5.5789 0.6494 -0.3926
v  2.1418 0.5242 -0.3312
v  -2.1465 0.4028 0.4277
v  5.0623 0.8615 3.5636
v  5.0623 0.8615 -3.3388
v  4.9297 0.8566 -3.3179
v  4.9297 0.8566 3.5428
v  5.0909 0.5566 -3.4204
v  4.9567 0.5614 -3.3962
v  5.0909 0.5566 3.6452
v  4.9567 0.5614 3.6211
v  4.9055 -0.0932 -2.5479
v  5.2402 -0.0932 -2.5870
v  4.8913 3.1565 -2.0129
v  4.6544 3.1565 -1.9897
v  5.2402 -0.0932 -3.2292
v  4.8913 3.1565 -2.3803
v  4.9055 -0.0932 -3.1810
v  4.6544 3.1565 -2.3533
v  4.9055 -0.0932 3.4362
v  5.2402 -0.0932 3.4850
v  4.8913 3.1565 2.6289
v  4.6544 3.1565 2.6014
v  5.2402 -0.0932 2.8426
v  4.8913 3.1565 2.2613
v  4.9055 -0.0932 2.8031
v  4.6544 3.1565 2.2379
v  -5.2650 -0.0932 -2.5889
v  -4.9304 -0.0932 -2.5499
v  -4.6778 3.1565 -1.9913
v  -4.9145 3.1565 -2.0146
v  -4.9304 -0.0932 -3.1835
v  -4.6778 3.1565 -2.3551
v  -5.2650 -0.0932 -3.2319
v  -4.9145 3.1565 -2.3823
v  -5.2650 -0.0932 3.4875
v  -4.9304 -0.0932 3.4387
v  -4.6778 3.1565 2.6033
v  -4.9145 3.1565 2.6307
v  -4.9304 -0.0932 2.8051
v  -4.6778 3.1565 2.2396
v  -5.2650 -0.0932 2.8447
v  -4.9145 3.1565 2.2630
v  -5.2988 3.3853 2.8782
v  -2.0385 3.1406 2.5636
v  -2.0387 3.1387 -2.3458
v  -5.2976 3.3833 -2.6611
v  5.2988 3.3853 2.8793
v  5.3231 3.1498 2.9419
v  5.3215 3.1518 -2.7239
v  5.2978 3.3833 -2.6622
v  2.0479 2.9052 2.6194
v  2.0479 2.9072 -2.4007
v  -5.3230 3.1498 2.9408
v  -5.3213 3.1518 -2.7229
v  2.0387 3.1387 -2.3459
v  -2.0479 2.9052 2.6190
v  2.0387 3.1406 2.5637
v  -2.0477 2.9072 -2.4005
v  2.1416 0.5261 0.4248
v  -2.1463 0.4048 -0.3352
# 80 vertices

vn -0.0362 0.9993 -0.0000
vn 0.1347 0.2428 -0.9607
vn 0.1324 0.2441 -0.9607
vn -0.0362 -0.9993 -0.0000
vn 0.1324 0.2431 0.9609
vn 0.1347 0.2438 0.9604
vn -0.9956 0.0937 -0.0000
vn 0.9958 -0.0913 -0.0000
vn 0.0713 0.9975 -0.0022
vn 0.0357 0.9994 -0.0026
vn 0.0358 0.9994 -0.0026
vn 0.9947 0.1024 -0.0016
vn 0.9947 0.1024 -0.0017
vn 0.0710 -0.9975 -0.0024
vn 0.0357 -0.9994 -0.0026
vn -0.9947 0.1023 -0.0017
vn -0.9947 0.1024 -0.0017
vn -0.0194 0.0364 -0.9991
vn -0.0190 0.0333 -0.9993
vn 0.0135 0.0235 0.9996
vn 0.0135 0.0257 0.9996
vn -0.0364 0.9993 -0.0000
vn -0.1631 0.2402 -0.9569
vn -0.1604 0.2394 -0.9576
vn -0.0360 -0.9994 -0.0000
vn -0.1604 0.2406 0.9573
vn -0.1632 0.2390 0.9572
vn -0.9959 -0.0909 -0.0000
vn 0.9956 0.0933 -0.0000
vn 0.1142 -0.1609 0.9803
vn 0.0960 -0.1613 0.9822
vn 0.9943 0.1067 -0.0000
vn -0.1388 0.2344 -0.9622
vn -0.1105 0.2401 -0.9644
vn -0.9970 -0.0770 -0.0000
vn -0.1399 0.2382 0.9611
vn -0.1116 0.2392 0.9645
vn 0.1155 -0.1615 -0.9801
vn 0.0969 -0.1652 -0.9815
vn -0.1146 -0.1596 0.9805
vn -0.0962 -0.1632 0.9819
vn 0.9970 -0.0775 -0.0000
vn 0.1391 0.2364 -0.9616
vn 0.1109 0.2374 -0.9651
vn -0.9942 0.1072 -0.0000
vn 0.1404 0.2363 0.9615
vn 0.1118 0.2421 0.9638
vn -0.1158 -0.1629 -0.9798
vn -0.0972 -0.1633 -0.9818
vn 0.0748 0.9972 -0.0004
vn 0.0749 0.9972 -0.0003
vn 0.9948 0.1023 -0.0002
vn 0.9947 0.1024 -0.0002
vn 0.0745 -0.9972 -0.0004
vn -0.9948 0.1023 -0.0002
vn -0.9947 0.1024 -0.0002
vn -0.1134 0.2451 -0.9628
vn -0.1108 0.2244 -0.9682
vn 0.1119 0.2238 0.9682
vn 0.1113 0.2447 0.9632
vn -0.0748 0.9972 -0.0003
vn -0.0749 0.9972 -0.0004
vn -0.0745 -0.9972 -0.0004
vn 0.1132 0.2451 -0.9629
vn 0.1106 0.2244 -0.9682
vn -0.1131 0.2445 0.9630
vn -0.1105 0.2239 0.9683
vn 0.0000 1.0000 -0.0004
vn 0.0000 -1.0000 -0.0004
vn -0.0001 0.2299 -0.9732
vn -0.0001 0.2300 -0.9732
vn -0.0001 0.2294 0.9733
vn -0.0358 0.9994 -0.0026
vn -0.0712 0.9975 -0.0022
vn -0.0357 -0.9994 -0.0026
vn -0.0711 -0.9975 -0.0024
vn 0.0193 0.0364 -0.9991
vn 0.0190 0.0333 -0.9993
vn -0.0136 0.0257 0.9996
vn -0.0134 0.0235 0.9996
vn 0.0000 0.0341 -0.9994
vn 0.0000 0.0240 0.9997
# 82 vertex normals

vt 0.3742 0.6647 0.0000
vt 0.3742 0.9837 0.0000
vt 0.3680 0.9846 0.0000
vt 0.3680 0.6638 0.0000
vt 0.3804 0.6285 0.0000
vt 0.3791 0.6144 0.0000
vt 0.3729 0.6146 0.0000
vt 0.3742 0.6283 0.0000
vt 0.3729 0.9875 0.0000
vt 0.3729 0.6610 0.0000
vt 0.3667 0.6602 0.0000
vt 0.3667 0.9883 0.0000
vt 0.2820 0.9822 0.0000
vt 0.3019 0.9875 0.0000
vt 0.3019 0.5137 0.0000
vt 0.2820 0.5190 0.0000
vt 0.3022 0.5149 0.0000
vt 0.3022 0.9863 0.0000
vt 0.2817 0.9809 0.0000
vt 0.2817 0.5203 0.0000
vt 0.3178 0.9880 0.0000
vt 0.3195 0.8425 0.0000
vt 0.3516 0.8425 0.0000
vt 0.3541 0.9879 0.0000
vt 0.3178 0.5151 0.0000
vt 0.3177 0.5146 0.0000
vt 0.3543 0.5147 0.0000
vt 0.3541 0.5152 0.0000
vt 0.3194 0.6604 0.0000
vt 0.3518 0.6604 0.0000
vt 0.3177 0.9885 0.0000
vt 0.3543 0.9885 0.0000
vt 0.3516 0.6606 0.0000
vt 0.3194 0.8427 0.0000
vt 0.3732 0.6615 0.0000
vt 0.3732 0.9822 0.0000
vt 0.3671 0.9812 0.0000
vt 0.3671 0.6625 0.0000
vt 0.3831 0.5917 0.0000
vt 0.3844 0.5776 0.0000
vt 0.3781 0.5778 0.0000
vt 0.3769 0.5915 0.0000
vt 0.3746 0.9860 0.0000
vt 0.3746 0.6577 0.0000
vt 0.3683 0.6588 0.0000
vt 0.3683 0.9848 0.0000
vt 0.2820 0.9807 0.0000
vt 0.3019 0.9859 0.0000
vt 0.3019 0.5152 0.0000
vt 0.2820 0.5205 0.0000
vt 0.3022 0.5136 0.0000
vt 0.3022 0.9876 0.0000
vt 0.2817 0.9821 0.0000
vt 0.2817 0.5191 0.0000
vt 0.4150 0.7640 0.0000
vt 0.3999 0.7640 0.0000
vt 0.4156 0.9106 0.0000
vt 0.4263 0.9106 0.0000
vt 0.4304 0.5106 0.0000
vt 0.4757 0.5106 0.0000
vt 0.4158 0.7398 0.0000
vt 0.3899 0.7398 0.0000
vt 0.4023 0.7640 0.0000
vt 0.4174 0.7640 0.0000
vt 0.4287 0.9106 0.0000
vt 0.4180 0.9106 0.0000
vt 0.4723 0.5106 0.0000
vt 0.4276 0.5106 0.0000
vt 0.3883 0.7398 0.0000
vt 0.4139 0.7398 0.0000
vt 0.4771 0.5106 0.0000
vt 0.4318 0.5106 0.0000
vt 0.3908 0.7398 0.0000
vt 0.4167 0.7398 0.0000
vt 0.4290 0.5106 0.0000
vt 0.4737 0.5106 0.0000
vt 0.4148 0.7398 0.0000
vt 0.3892 0.7398 0.0000
vt 0.3993 0.7640 0.0000
vt 0.4144 0.7640 0.0000
vt 0.4258 0.9106 0.0000
vt 0.4151 0.9106 0.0000
vt 0.4278 0.5106 0.0000
vt 0.4725 0.5106 0.0000
vt 0.4140 0.7398 0.0000
vt 0.3884 0.7398 0.0000
vt 0.4759 0.5106 0.0000
vt 0.4305 0.5106 0.0000
vt 0.3900 0.7398 0.0000
vt 0.4160 0.7398 0.0000
vt 0.4739 0.5106 0.0000
vt 0.4292 0.5106 0.0000
vt 0.3893 0.7398 0.0000
vt 0.4149 0.7398 0.0000
vt 0.4320 0.5106 0.0000
vt 0.4773 0.5106 0.0000
vt 0.4169 0.7398 0.0000
vt 0.3909 0.7398 0.0000
vt 0.0163 0.9860 0.0000
vt 0.0303 0.8408 0.0000
vt 0.2489 0.8408 0.0000
vt 0.2629 0.9859 0.0000
vt 0.0163 0.5142 0.0000
vt 0.0135 0.5131 0.0000
vt 0.2657 0.5132 0.0000
vt 0.2630 0.5143 0.0000
vt 0.0279 0.6589 0.0000
vt 0.2513 0.6589 0.0000
vt 0.0135 0.9871 0.0000
vt 0.2657 0.9870 0.0000
vt 0.2489 0.6593 0.0000
vt 0.0279 0.8413 0.0000
vt 0.0303 0.6593 0.0000
vt 0.2513 0.8413 0.0000
vt 0.3195 0.6606 0.0000
vt 0.3518 0.8427 0.0000
# 116 texture coords

g Table01
usemtl 02___Default
s off
f 1/1/1 2/2/1 3/3/1 
f 3/3/1 4/4/1 1/1/1 
f 2/5/2 5/6/2 6/7/2 
f 6/7/3 3/8/3 2/5/3 
f 5/9/4 7/10/4 8/11/4 
f 8/11/4 6/12/4 5/9/4 
f 7/6/5 1/5/5 4/8/5 
f 4/8/6 8/7/6 7/6/6 
f 3/13/7 6/14/7 8/15/7 
f 8/15/7 4/16/7 3/13/7 
f 7/17/8 5/18/8 2/19/8 
f 2/19/8 1/20/8 7/17/8 
s 1
f 9/21/9 10/22/10 11/23/11 
f 11/23/11 12/24/9 9/21/9 
s off
f 13/25/12 14/26/12 15/27/12 
f 15/27/13 16/28/13 13/25/13 
s 1
f 14/26/14 17/29/15 18/30/15 
f 18/30/15 15/27/14 14/26/14 
s off
f 19/31/16 9/21/16 12/24/16 
f 12/24/17 20/32/17 19/31/17 
f 16/28/18 15/27/18 18/30/18 
f 18/30/19 21/33/19 16/28/19 
f 19/31/20 22/34/20 10/22/20 
f 10/22/21 9/21/21 19/31/21 
f 23/35/22 24/36/22 25/37/22 
f 25/37/22 26/38/22 23/35/22 
f 24/39/23 27/40/23 28/41/23 
f 28/41/24 25/42/24 24/39/24 
f 27/43/25 29/44/25 30/45/25 
f 30/45/25 28/46/25 27/43/25 
f 29/40/26 23/39/26 26/42/26 
f 26/42/27 30/41/27 29/40/27 
f 25/47/28 28/48/28 30/49/28 
f 30/49/28 26/50/28 25/47/28 
f 29/51/29 27/52/29 24/53/29 
f 24/53/29 23/54/29 29/51/29 
f 31/55/30 32/56/30 33/57/30 
f 33/57/31 34/58/31 31/55/31 
f 32/59/32 35/60/32 36/61/32 
f 36/61/32 33/62/32 32/59/32 
f 35/63/33 37/64/33 38/65/33 
f 38/65/34 36/66/34 35/63/34 
f 37/67/35 31/68/35 34/69/35 
f 34/69/35 38/70/35 37/67/35 
f 39/64/36 40/63/36 41/66/36 
f 41/66/37 42/65/37 39/64/37 
f 40/71/32 43/72/32 44/73/32 
f 44/73/32 41/74/32 40/71/32 
f 43/63/38 45/64/38 46/65/38 
f 46/65/39 44/66/39 43/63/39 
f 45/75/35 39/76/35 42/77/35 
f 42/77/35 46/78/35 45/75/35 
f 47/79/40 48/80/40 49/81/40 
f 49/81/41 50/82/41 47/79/41 
f 48/83/42 51/84/42 52/85/42 
f 52/85/42 49/86/42 48/83/42 
f 51/80/43 53/79/43 54/82/43 
f 54/82/44 52/81/44 51/80/44 
f 53/87/45 47/88/45 50/89/45 
f 50/89/45 54/90/45 53/87/45 
f 55/79/46 56/80/46 57/81/46 
f 57/81/47 58/82/47 55/79/47 
f 56/91/42 59/92/42 60/93/42 
f 60/93/42 57/94/42 56/91/42 
f 59/80/48 61/79/48 62/82/48 
f 62/82/49 60/81/49 59/80/49 
f 61/95/45 55/96/45 58/97/45 
f 58/97/45 62/98/45 61/95/45 
f 63/99/50 64/100/50 65/101/50 
f 65/101/51 66/102/51 63/99/51 
f 67/103/52 68/104/52 69/105/52 
f 69/105/53 70/106/53 67/103/53 
f 68/104/54 71/107/54 72/108/54 
f 72/108/54 69/105/54 68/104/54 
f 73/109/55 63/99/55 66/102/55 
f 66/102/56 74/110/56 73/109/56 
f 70/106/57 69/105/57 72/108/57 
f 72/108/58 75/111/58 70/106/58 
f 73/109/59 76/112/59 64/100/59 
f 64/100/60 63/99/60 73/109/60 
f 77/113/61 67/103/61 70/106/61 
f 70/106/62 75/111/62 77/113/62 
f 76/112/63 73/109/63 74/110/63 
f 74/110/63 78/114/63 76/112/63 
f 78/114/64 74/110/64 66/102/64 
f 66/102/65 65/101/65 78/114/65 
f 71/107/66 68/104/66 67/103/66 
f 67/103/67 77/113/67 71/107/67 
f 64/100/68 77/113/68 75/111/68 
f 75/111/68 65/101/68 64/100/68 
f 71/107/69 76/112/69 78/114/69 
f 78/114/69 72/108/69 71/107/69 
f 72/108/70 78/114/70 65/101/70 
f 65/101/71 75/111/71 72/108/71 
f 76/112/72 71/107/72 77/113/72 
f 77/113/72 64/100/72 76/112/72 
s 1
f 79/115/73 13/25/74 16/28/74 
f 16/28/74 21/33/73 79/115/73 
f 22/34/75 19/31/76 20/32/76 
f 20/32/76 80/116/75 22/34/75 
s off
f 80/116/77 20/32/77 12/24/77 
f 12/24/78 11/23/78 80/116/78 
f 17/29/79 14/26/79 13/25/79 
f 13/25/80 79/115/80 17/29/80 
s 1
f 10/22/10 79/115/73 21/33/73 
f 21/33/73 11/23/11 10/22/10 
f 17/29/15 22/34/75 80/116/75 
f 80/116/75 18/30/15 17/29/15 
s off
f 18/30/81 80/116/81 11/23/81 
f 11/23/81 21/33/81 18/30/81 
f 22/34/82 17/29/82 79/115/82 
f 79/115/82 10/22/82 22/34/82 
# 112 faces

