# 3ds Max Wavefront OBJ Exporter v0.97b - (c)2007 guruware
# 创建的文件:18.07.2015 19:54:43

mtllib tong.mtl

#
# object Barrel01
#

v  0.6516 0.2240 1.1284
v  0.0000 0.2240 1.3030
v  -0.6516 0.2240 1.1284
v  1.1284 0.2240 0.6516
v  -1.1284 0.2240 0.6516
v  -1.3030 0.2240 -0.0000
v  -1.1284 0.2240 -0.6516
v  -0.6516 0.2240 -1.1284
v  0.0000 0.2240 -1.3030
v  0.6516 0.2240 -1.1284
v  1.1284 0.2240 -0.6516
v  1.3030 0.2240 -0.0000
v  1.2738 0.1546 -0.7354
v  1.4694 1.0884 -0.8484
v  1.6968 1.0884 -0.0000
v  1.4710 0.1546 -0.0000
v  0.7354 0.1546 -1.2738
v  0.8484 1.0884 -1.4694
v  0.0000 0.1546 -1.4710
v  0.0000 1.0884 -1.6968
v  -0.7354 0.1546 -1.2738
v  -0.8484 1.0884 -1.4694
v  -1.2738 0.1546 -0.7354
v  -1.4694 1.0884 -0.8484
v  -1.4710 0.1546 -0.0000
v  -1.6968 1.0884 -0.0000
v  -1.2738 0.1546 0.7354
v  -1.4694 1.0884 0.8484
v  -0.7354 0.1546 1.2738
v  -0.8484 1.0884 1.4694
v  0.0000 0.1546 1.4710
v  0.0000 1.0884 1.6968
v  0.7354 0.1546 1.2738
v  0.8484 1.0884 1.4694
v  1.2738 0.1546 0.7354
v  1.4694 1.0884 0.8484
v  1.5704 2.3610 -0.9066
v  1.8134 2.3610 -0.0000
v  0.9066 2.3610 -1.5704
v  0.0000 2.3610 -1.8134
v  -0.9066 2.3610 -1.5704
v  -1.5704 2.3610 -0.9066
v  -1.8134 2.3610 -0.0000
v  -1.5704 2.3610 0.9066
v  -0.9066 2.3610 1.5704
v  0.0000 2.3610 1.8134
v  0.9066 2.3610 1.5704
v  1.5704 2.3610 0.9066
v  1.4694 3.6336 -0.8484
v  1.6968 3.6336 -0.0000
v  0.8484 3.6336 -1.4694
v  0.0000 3.6336 -1.6968
v  -0.8484 3.6336 -1.4694
v  -1.4694 3.6336 -0.8484
v  -1.6968 3.6336 -0.0000
v  -1.4694 3.6336 0.8484
v  -0.8484 3.6336 1.4694
v  0.0000 3.6336 1.6968
v  0.8484 3.6336 1.4694
v  1.4694 3.6336 0.8484
v  1.2738 4.5674 -0.7354
v  1.4710 4.5674 -0.0000
v  0.7354 4.5674 -1.2738
v  0.0000 4.5674 -1.4710
v  -0.7354 4.5674 -1.2738
v  -1.2738 4.5674 -0.7354
v  -1.4710 4.5674 -0.0000
v  -1.2738 4.5674 0.7354
v  -0.7354 4.5674 1.2738
v  0.0000 4.5674 1.4710
v  0.7354 4.5674 1.2738
v  1.2738 4.5674 0.7354
v  1.3030 4.4982 -0.0000
v  1.1284 4.4982 -0.6516
v  0.6516 4.4982 -1.1284
v  1.1284 4.4982 0.6516
v  0.0000 4.4982 -1.3030
v  -0.6516 4.4982 -1.1284
v  -1.1284 4.4982 -0.6516
v  -1.3030 4.4982 -0.0000
v  -1.1284 4.4982 0.6516
v  -0.6516 4.4982 1.1284
v  0.0000 4.4982 1.3030
v  0.6516 4.4982 1.1284
v  1.3030 0.1546 -0.0000
v  1.1284 0.1546 -0.6516
v  1.1284 0.1546 0.6516
v  0.6516 0.1546 1.1284
v  0.0000 0.1546 1.3030
v  -0.6516 0.1546 1.1284
v  -1.1284 0.1546 0.6516
v  -1.3030 0.1546 -0.0000
v  -1.1284 0.1546 -0.6516
v  -0.6516 0.1546 -1.1284
v  0.0000 0.1546 -1.3030
v  0.6516 0.1546 -1.1284
v  1.1284 4.5674 -0.6516
v  1.3030 4.5674 -0.0000
v  0.6516 4.5674 -1.1284
v  0.0000 4.5674 -1.3030
v  -0.6516 4.5674 -1.1284
v  -1.1284 4.5674 -0.6516
v  -1.3030 4.5674 -0.0000
v  -1.1284 4.5674 0.6516
v  -0.6516 4.5674 1.1284
v  0.0000 4.5674 1.3030
v  0.6516 4.5674 1.1284
v  1.1284 4.5674 0.6516
# 108 vertices

vn 0.0000 -1.0000 -0.0000
vn 0.8417 -0.2351 -0.4860
vn 0.8546 -0.1617 -0.4934
vn 0.9868 -0.1617 -0.0000
vn 0.9720 -0.2351 -0.0000
vn 0.4860 -0.2351 -0.8417
vn 0.4934 -0.1617 -0.8546
vn 0.0000 -0.2351 -0.9720
vn 0.0000 -0.1617 -0.9868
vn -0.4860 -0.2351 -0.8417
vn -0.4934 -0.1617 -0.8546
vn -0.8417 -0.2351 -0.4860
vn -0.8546 -0.1617 -0.4934
vn -0.9720 -0.2351 -0.0000
vn -0.9868 -0.1617 -0.0000
vn -0.8418 -0.2351 0.4860
vn -0.8546 -0.1617 0.4934
vn -0.4860 -0.2351 0.8417
vn -0.4934 -0.1617 0.8546
vn 0.0000 -0.2351 0.9720
vn 0.0000 -0.1617 0.9868
vn 0.4860 -0.2351 0.8418
vn 0.4934 -0.1617 0.8546
vn 0.8417 -0.2351 0.4860
vn 0.8546 -0.1617 0.4934
vn 0.8660 0.0000 -0.5000
vn 1.0000 0.0000 -0.0000
vn 0.5000 0.0000 -0.8660
vn 0.0000 0.0000 -1.0000
vn -0.5000 0.0000 -0.8660
vn -0.8660 0.0000 -0.5000
vn -1.0000 0.0000 -0.0000
vn -0.8660 0.0000 0.5000
vn -0.5000 0.0000 0.8660
vn 0.0000 0.0000 1.0000
vn 0.5000 0.0000 0.8660
vn 0.8660 0.0000 0.5000
vn 0.8546 0.1617 -0.4934
vn 0.9868 0.1617 -0.0000
vn 0.4934 0.1617 -0.8546
vn 0.0000 0.1617 -0.9868
vn -0.4934 0.1617 -0.8546
vn -0.8546 0.1617 -0.4934
vn -0.9868 0.1617 -0.0000
vn -0.8546 0.1617 0.4934
vn -0.4934 0.1617 0.8546
vn 0.0000 0.1617 0.9868
vn 0.4934 0.1617 0.8546
vn 0.8546 0.1617 0.4934
vn 0.8417 0.2351 -0.4860
vn 0.9720 0.2351 -0.0000
vn 0.4860 0.2351 -0.8418
vn 0.0000 0.2351 -0.9720
vn -0.4860 0.2351 -0.8417
vn -0.8417 0.2351 -0.4860
vn -0.9720 0.2351 -0.0000
vn -0.8418 0.2351 0.4860
vn -0.4860 0.2351 0.8417
vn 0.0000 0.2351 0.9720
vn 0.4860 0.2351 0.8418
vn 0.8417 0.2351 0.4860
vn 0.0000 1.0000 -0.0000
vn -0.9659 0.0000 0.2588
vn -0.9659 0.0000 -0.2588
vn -0.7071 0.0000 -0.7071
vn -0.2588 0.0000 -0.9659
vn 0.2588 0.0000 -0.9659
vn 0.7071 0.0000 -0.7071
vn 0.9659 0.0000 -0.2588
vn 0.9659 0.0000 0.2588
vn 0.7071 0.0000 0.7071
vn 0.2588 0.0000 0.9659
vn -0.2588 0.0000 0.9659
vn -0.7071 0.0000 0.7071
# 74 vertex normals

vt 0.0722 0.0563 0.0000
vt 0.0407 0.0643 0.0000
vt 0.0137 0.0907 0.0000
vt 0.1062 0.0651 0.0000
vt 0.0049 0.1248 0.0000
vt 0.0143 0.1586 0.0000
vt 0.0393 0.1833 0.0000
vt 0.0734 0.1921 0.0000
vt 0.1072 0.1827 0.0000
vt 0.1319 0.1576 0.0000
vt 0.1407 0.1236 0.0000
vt 0.1313 0.0897 0.0000
vt 0.0761 0.2000 0.0000
vt 0.0761 0.2707 0.0000
vt 0.0030 0.2707 0.0000
vt 0.0030 0.2000 0.0000
vt 0.1491 0.2000 0.0000
vt 0.1491 0.2707 0.0000
vt 0.2221 0.2000 0.0000
vt 0.2221 0.2707 0.0000
vt 0.0788 0.2000 0.0000
vt 0.0788 0.2707 0.0000
vt 0.0058 0.2707 0.0000
vt 0.0058 0.2000 0.0000
vt 0.1518 0.2000 0.0000
vt 0.1518 0.2707 0.0000
vt 0.2248 0.2000 0.0000
vt 0.2248 0.2707 0.0000
vt 0.0766 0.2000 0.0000
vt 0.0766 0.2707 0.0000
vt 0.0036 0.2707 0.0000
vt 0.0036 0.2000 0.0000
vt 0.1496 0.2000 0.0000
vt 0.1496 0.2707 0.0000
vt 0.2227 0.2000 0.0000
vt 0.2227 0.2707 0.0000
vt 0.0793 0.2000 0.0000
vt 0.0793 0.2707 0.0000
vt 0.0063 0.2707 0.0000
vt 0.0063 0.2000 0.0000
vt 0.1524 0.2000 0.0000
vt 0.1524 0.2707 0.0000
vt 0.2254 0.2000 0.0000
vt 0.2254 0.2707 0.0000
vt 0.0761 0.3672 0.0000
vt 0.0030 0.3672 0.0000
vt 0.1491 0.3672 0.0000
vt 0.2221 0.3672 0.0000
vt 0.0788 0.3672 0.0000
vt 0.0058 0.3672 0.0000
vt 0.1518 0.3672 0.0000
vt 0.2248 0.3672 0.0000
vt 0.0766 0.3672 0.0000
vt 0.0036 0.3672 0.0000
vt 0.1496 0.3672 0.0000
vt 0.2227 0.3672 0.0000
vt 0.0793 0.3672 0.0000
vt 0.0063 0.3672 0.0000
vt 0.1524 0.3672 0.0000
vt 0.2254 0.3672 0.0000
vt 0.0761 0.4636 0.0000
vt 0.0030 0.4636 0.0000
vt 0.1491 0.4636 0.0000
vt 0.2221 0.4636 0.0000
vt 0.0788 0.4636 0.0000
vt 0.0058 0.4636 0.0000
vt 0.1518 0.4636 0.0000
vt 0.2248 0.4636 0.0000
vt 0.0766 0.4636 0.0000
vt 0.0036 0.4636 0.0000
vt 0.1496 0.4636 0.0000
vt 0.2227 0.4636 0.0000
vt 0.0793 0.4636 0.0000
vt 0.0063 0.4636 0.0000
vt 0.1524 0.4636 0.0000
vt 0.2254 0.4636 0.0000
vt 0.0761 0.5344 0.0000
vt 0.0030 0.5344 0.0000
vt 0.1491 0.5344 0.0000
vt 0.2221 0.5344 0.0000
vt 0.0788 0.5344 0.0000
vt 0.0058 0.5344 0.0000
vt 0.1518 0.5344 0.0000
vt 0.2248 0.5344 0.0000
vt 0.0766 0.5344 0.0000
vt 0.0036 0.5344 0.0000
vt 0.1496 0.5344 0.0000
vt 0.2227 0.5344 0.0000
vt 0.0793 0.5344 0.0000
vt 0.0063 0.5344 0.0000
vt 0.1524 0.5344 0.0000
vt 0.2254 0.5344 0.0000
vt 0.0030 0.2052 0.0000
vt 0.0761 0.2052 0.0000
vt 0.1524 0.2052 0.0000
vt 0.2254 0.2052 0.0000
vt 0.0793 0.2052 0.0000
vt 0.0063 0.2052 0.0000
vt 0.1496 0.2052 0.0000
vt 0.2227 0.2052 0.0000
vt 0.0766 0.2052 0.0000
vt 0.0036 0.2052 0.0000
vt 0.1518 0.2052 0.0000
vt 0.2248 0.2052 0.0000
vt 0.0788 0.2052 0.0000
vt 0.0058 0.2052 0.0000
vt 0.1491 0.2052 0.0000
vt 0.2221 0.2052 0.0000
vt 0.0761 0.5291 0.0000
vt 0.0030 0.5291 0.0000
vt 0.1491 0.5291 0.0000
vt 0.2221 0.5291 0.0000
vt 0.0788 0.5291 0.0000
vt 0.0058 0.5291 0.0000
vt 0.1518 0.5291 0.0000
vt 0.2248 0.5291 0.0000
vt 0.0766 0.5291 0.0000
vt 0.0036 0.5291 0.0000
vt 0.1496 0.5291 0.0000
vt 0.2227 0.5291 0.0000
vt 0.0793 0.5291 0.0000
vt 0.0063 0.5291 0.0000
vt 0.1524 0.5291 0.0000
vt 0.2254 0.5291 0.0000
# 124 texture coords

g Barrel01
usemtl 01___Default
s 1
f 1/1/1 2/2/1 3/3/1 
f 3/3/1 4/4/1 1/1/1 
f 3/3/1 5/5/1 6/6/1 
f 6/6/1 4/4/1 3/3/1 
f 6/6/1 7/7/1 8/8/1 
f 8/8/1 4/4/1 6/6/1 
f 8/8/1 9/9/1 10/10/1 
f 10/10/1 4/4/1 8/8/1 
f 10/10/1 11/11/1 12/12/1 
f 12/12/1 4/4/1 10/10/1 
s 8
f 13/13/2 14/14/3 15/15/4 
f 15/15/4 16/16/5 13/13/2 
f 17/17/6 18/18/7 14/14/3 
f 14/14/3 13/13/2 17/17/6 
f 19/19/8 20/20/9 18/18/7 
f 18/18/7 17/17/6 19/19/8 
f 21/21/10 22/22/11 20/23/9 
f 20/23/9 19/24/8 21/21/10 
f 23/25/12 24/26/13 22/22/11 
f 22/22/11 21/21/10 23/25/12 
f 25/27/14 26/28/15 24/26/13 
f 24/26/13 23/25/12 25/27/14 
f 27/29/16 28/30/17 26/31/15 
f 26/31/15 25/32/14 27/29/16 
f 29/33/18 30/34/19 28/30/17 
f 28/30/17 27/29/16 29/33/18 
f 31/35/20 32/36/21 30/34/19 
f 30/34/19 29/33/18 31/35/20 
f 33/37/22 34/38/23 32/39/21 
f 32/39/21 31/40/20 33/37/22 
f 35/41/24 36/42/25 34/38/23 
f 34/38/23 33/37/22 35/41/24 
f 16/43/5 15/44/4 36/42/25 
f 36/42/25 35/41/24 16/43/5 
f 14/14/3 37/45/26 38/46/27 
f 38/46/27 15/15/4 14/14/3 
f 18/18/7 39/47/28 37/45/26 
f 37/45/26 14/14/3 18/18/7 
f 20/20/9 40/48/29 39/47/28 
f 39/47/28 18/18/7 20/20/9 
f 22/22/11 41/49/30 40/50/29 
f 40/50/29 20/23/9 22/22/11 
f 24/26/13 42/51/31 41/49/30 
f 41/49/30 22/22/11 24/26/13 
f 26/28/15 43/52/32 42/51/31 
f 42/51/31 24/26/13 26/28/15 
f 28/30/17 44/53/33 43/54/32 
f 43/54/32 26/31/15 28/30/17 
f 30/34/19 45/55/34 44/53/33 
f 44/53/33 28/30/17 30/34/19 
f 32/36/21 46/56/35 45/55/34 
f 45/55/34 30/34/19 32/36/21 
f 34/38/23 47/57/36 46/58/35 
f 46/58/35 32/39/21 34/38/23 
f 36/42/25 48/59/37 47/57/36 
f 47/57/36 34/38/23 36/42/25 
f 15/44/4 38/60/27 48/59/37 
f 48/59/37 36/42/25 15/44/4 
f 37/45/26 49/61/38 50/62/39 
f 50/62/39 38/46/27 37/45/26 
f 39/47/28 51/63/40 49/61/38 
f 49/61/38 37/45/26 39/47/28 
f 40/48/29 52/64/41 51/63/40 
f 51/63/40 39/47/28 40/48/29 
f 41/49/30 53/65/42 52/66/41 
f 52/66/41 40/50/29 41/49/30 
f 42/51/31 54/67/43 53/65/42 
f 53/65/42 41/49/30 42/51/31 
f 43/52/32 55/68/44 54/67/43 
f 54/67/43 42/51/31 43/52/32 
f 44/53/33 56/69/45 55/70/44 
f 55/70/44 43/54/32 44/53/33 
f 45/55/34 57/71/46 56/69/45 
f 56/69/45 44/53/33 45/55/34 
f 46/56/35 58/72/47 57/71/46 
f 57/71/46 45/55/34 46/56/35 
f 47/57/36 59/73/48 58/74/47 
f 58/74/47 46/58/35 47/57/36 
f 48/59/37 60/75/49 59/73/48 
f 59/73/48 47/57/36 48/59/37 
f 38/60/27 50/76/39 60/75/49 
f 60/75/49 48/59/37 38/60/27 
f 49/61/38 61/77/50 62/78/51 
f 62/78/51 50/62/39 49/61/38 
f 51/63/40 63/79/52 61/77/50 
f 61/77/50 49/61/38 51/63/40 
f 52/64/41 64/80/53 63/79/52 
f 63/79/52 51/63/40 52/64/41 
f 53/65/42 65/81/54 64/82/53 
f 64/82/53 52/66/41 53/65/42 
f 54/67/43 66/83/55 65/81/54 
f 65/81/54 53/65/42 54/67/43 
f 55/68/44 67/84/56 66/83/55 
f 66/83/55 54/67/43 55/68/44 
f 56/69/45 68/85/57 67/86/56 
f 67/86/56 55/70/44 56/69/45 
f 57/71/46 69/87/58 68/85/57 
f 68/85/57 56/69/45 57/71/46 
f 58/72/47 70/88/59 69/87/58 
f 69/87/58 57/71/46 58/72/47 
f 59/73/48 71/89/60 70/90/59 
f 70/90/59 58/74/47 59/73/48 
f 60/75/49 72/91/61 71/89/60 
f 71/89/60 59/73/48 60/75/49 
f 50/76/39 62/92/51 72/91/61 
f 72/91/61 60/75/49 50/76/39 
s 1
f 73/12/62 74/11/62 75/10/62 
f 75/10/62 76/4/62 73/12/62 
f 75/10/62 77/9/62 78/8/62 
f 78/8/62 76/4/62 75/10/62 
f 78/8/62 79/7/62 80/6/62 
f 80/6/62 76/4/62 78/8/62 
f 80/6/62 81/5/62 82/3/62 
f 82/3/62 76/4/62 80/6/62 
f 82/3/62 83/2/62 84/1/62 
f 84/1/62 76/4/62 82/3/62 
s off
f 16/16/1 85/16/1 86/13/1 
f 86/13/1 13/13/1 16/16/1 
f 35/41/1 87/41/1 85/43/1 
f 85/43/1 16/43/1 35/41/1 
f 33/37/1 88/37/1 87/41/1 
f 87/41/1 35/41/1 33/37/1 
f 31/40/1 89/40/1 88/37/1 
f 88/37/1 33/37/1 31/40/1 
f 29/33/1 90/33/1 89/35/1 
f 89/35/1 31/35/1 29/33/1 
f 27/29/1 91/29/1 90/33/1 
f 90/33/1 29/33/1 27/29/1 
f 25/32/1 92/32/1 91/29/1 
f 91/29/1 27/29/1 25/32/1 
f 23/25/1 93/25/1 92/27/1 
f 92/27/1 25/27/1 23/25/1 
f 21/21/1 94/21/1 93/25/1 
f 93/25/1 23/25/1 21/21/1 
f 19/24/1 95/24/1 94/21/1 
f 94/21/1 21/21/1 19/24/1 
f 17/17/1 96/17/1 95/19/1 
f 95/19/1 19/19/1 17/17/1 
f 13/13/1 86/13/1 96/17/1 
f 96/17/1 17/17/1 13/13/1 
f 61/77/62 97/77/62 98/78/62 
f 98/78/62 62/78/62 61/77/62 
f 63/79/62 99/79/62 97/77/62 
f 97/77/62 61/77/62 63/79/62 
f 64/80/62 100/80/62 99/79/62 
f 99/79/62 63/79/62 64/80/62 
f 65/81/62 101/81/62 100/82/62 
f 100/82/62 64/82/62 65/81/62 
f 66/83/62 102/83/62 101/81/62 
f 101/81/62 65/81/62 66/83/62 
f 67/84/62 103/84/62 102/83/62 
f 102/83/62 66/83/62 67/84/62 
f 68/85/62 104/85/62 103/86/62 
f 103/86/62 67/86/62 68/85/62 
f 69/87/62 105/87/62 104/85/62 
f 104/85/62 68/85/62 69/87/62 
f 70/88/62 106/88/62 105/87/62 
f 105/87/62 69/87/62 70/88/62 
f 71/89/62 107/89/62 106/90/62 
f 106/90/62 70/90/62 71/89/62 
f 72/91/62 108/91/62 107/89/62 
f 107/89/62 71/89/62 72/91/62 
f 62/92/62 98/92/62 108/91/62 
f 108/91/62 72/91/62 62/92/62 
f 85/16/63 12/93/63 11/94/63 
f 11/94/63 86/13/63 85/16/63 
f 87/41/64 4/95/64 12/96/64 
f 12/96/64 85/43/64 87/41/64 
f 88/37/65 1/97/65 4/95/65 
f 4/95/65 87/41/65 88/37/65 
f 89/40/66 2/98/66 1/97/66 
f 1/97/66 88/37/66 89/40/66 
f 90/33/67 3/99/67 2/100/67 
f 2/100/67 89/35/67 90/33/67 
f 91/29/68 5/101/68 3/99/68 
f 3/99/68 90/33/68 91/29/68 
f 92/32/69 6/102/69 5/101/69 
f 5/101/69 91/29/69 92/32/69 
f 93/25/70 7/103/70 6/104/70 
f 6/104/70 92/27/70 93/25/70 
f 94/21/71 8/105/71 7/103/71 
f 7/103/71 93/25/71 94/21/71 
f 95/24/72 9/106/72 8/105/72 
f 8/105/72 94/21/72 95/24/72 
f 96/17/73 10/107/73 9/108/73 
f 9/108/73 95/19/73 96/17/73 
f 86/13/74 11/94/74 10/107/74 
f 10/107/74 96/17/74 86/13/74 
f 97/77/63 74/109/63 73/110/63 
f 73/110/63 98/78/63 97/77/63 
f 99/79/74 75/111/74 74/109/74 
f 74/109/74 97/77/74 99/79/74 
f 100/80/73 77/112/73 75/111/73 
f 75/111/73 99/79/73 100/80/73 
f 101/81/72 78/113/72 77/114/72 
f 77/114/72 100/82/72 101/81/72 
f 102/83/71 79/115/71 78/113/71 
f 78/113/71 101/81/71 102/83/71 
f 103/84/70 80/116/70 79/115/70 
f 79/115/70 102/83/70 103/84/70 
f 104/85/69 81/117/69 80/118/69 
f 80/118/69 103/86/69 104/85/69 
f 105/87/68 82/119/68 81/117/68 
f 81/117/68 104/85/68 105/87/68 
f 106/88/67 83/120/67 82/119/67 
f 82/119/67 105/87/67 106/88/67 
f 107/89/66 84/121/66 83/122/66 
f 83/122/66 106/90/66 107/89/66 
f 108/91/65 76/123/65 84/121/65 
f 84/121/65 107/89/65 108/91/65 
f 98/92/64 73/124/64 76/123/64 
f 76/123/64 108/91/64 98/92/64 
# 212 faces

