# 3ds Max Wavefront OBJ Exporter v0.97b - (c)2007 guruware
# 创建的文件:21.07.2015 09:35:16

mtllib shu00.mtl

#
# object Box107
#

v  -2.5087 7.2640 6.4492
v  -2.5087 7.2640 5.7750
v  -2.5087 -0.2878 5.7750
v  -2.5087 -0.2878 6.4492
v  3.4849 7.2640 6.4492
v  3.4849 -0.2878 6.4492
v  3.4849 -0.2878 5.7750
v  3.4849 7.2640 5.7750
v  4.2636 -0.5963 -9.3144
v  -3.9682 -0.5963 -9.3144
v  -3.9682 -0.3207 -9.3144
v  4.2636 -0.3207 -9.3144
v  -3.9682 -0.5963 9.8470
v  -3.9682 -0.3207 9.8470
v  4.2636 -0.5963 9.8470
v  4.2636 -0.3207 9.8470
v  -2.1927 6.8039 2.1673
v  -2.1927 6.9028 1.9163
v  -2.1927 -0.1236 -0.8515
v  -2.1927 -0.2225 -0.6005
v  3.8009 6.8039 2.1673
v  3.8009 -0.2225 -0.6005
v  3.8009 -0.1236 -0.8515
v  3.8009 6.9028 1.9163
v  -2.6667 7.2031 2.7417
v  -2.6667 7.2688 2.2063
v  -2.6667 -0.2269 1.2860
v  -2.6667 -0.2926 1.8213
v  3.3269 7.2031 2.7417
v  3.3269 -0.2926 1.8213
v  3.3269 -0.2269 1.2860
v  3.3269 7.2688 2.2063
v  -2.4084 7.2640 3.1285
v  -2.4084 7.2640 2.7240
v  -2.4084 -0.2878 2.7240
v  -2.4084 -0.2878 3.1285
v  3.5853 7.2640 3.1285
v  3.5853 -0.2878 3.1285
v  3.5853 -0.2878 2.7240
v  3.5853 7.2640 2.7240
v  -2.2981 7.2640 3.5637
v  -2.2981 7.2640 3.1592
v  -2.2981 -0.2878 3.1592
v  -2.2981 -0.2878 3.5637
v  3.6955 7.2640 3.5637
v  3.6955 -0.2878 3.5637
v  3.6955 -0.2878 3.1592
v  3.6955 7.2640 3.1592
v  -2.3244 7.2640 5.0126
v  -2.3244 7.2640 4.3383
v  -2.3244 -0.2878 4.3383
v  -2.3244 -0.2878 5.0126
v  3.6692 7.2640 5.0126
v  3.6692 -0.2878 5.0126
v  3.6692 -0.2878 4.3383
v  3.6692 7.2640 4.3383
v  -2.5350 7.2640 4.2848
v  -2.5350 7.2640 3.6105
v  -2.5350 -0.2878 3.6105
v  -2.5350 -0.2878 4.2848
v  3.4586 7.2640 4.2848
v  3.4586 -0.2878 4.2848
v  3.4586 -0.2878 3.6105
v  3.4586 7.2640 3.6105
v  -2.3507 7.2640 5.7214
v  -2.3507 7.2640 5.0471
v  -2.3507 -0.2878 5.0471
v  -2.3507 -0.2878 5.7214
v  3.6429 7.2640 5.7214
v  3.6429 -0.2878 5.7214
v  3.6429 -0.2878 5.0471
v  3.6429 7.2640 5.0471
v  -2.4084 7.2313 7.6084
v  -2.4084 7.2736 7.0706
v  -2.4084 -0.2551 6.4781
v  -2.4084 -0.2974 7.0159
v  3.5853 7.2313 7.6084
v  3.5853 -0.2974 7.0159
v  3.5853 -0.2551 6.4781
v  3.5853 7.2736 7.0706
# 80 vertices

vn -1.0000 0.0000 -0.0000
vn 1.0000 0.0000 -0.0000
vn 0.0000 -1.0000 -0.0000
vn 0.0000 0.0000 1.0000
vn 0.0000 1.0000 -0.0000
vn 0.0000 0.0000 -1.0000
vn 0.0000 -0.9303 -0.3667
vn 0.0000 -0.3665 0.9304
vn 0.0000 0.9303 0.3667
vn 0.0000 0.3665 -0.9304
vn 0.0000 -0.9925 -0.1219
vn 0.0000 -0.1219 0.9925
vn 0.0000 0.9925 0.1219
vn 0.0000 0.1219 -0.9925
vn 0.0000 -0.9969 -0.0784
vn 0.0000 -0.0785 0.9969
vn 0.0000 0.9969 0.0784
vn 0.0000 0.0785 -0.9969
# 18 vertex normals

vt -0.9074 0.8494 0.0000
vt -0.5940 0.8494 0.0000
vt -0.5940 0.5956 0.0000
vt -0.9074 0.5956 0.0000
vt 1.9905 0.9820 0.0000
vt 1.9905 0.5165 0.0000
vt 1.4884 0.5165 0.0000
vt 1.4884 0.9820 0.0000
vt -0.7988 0.0455 0.0000
vt -0.0615 0.0455 0.0000
vt -0.0615 0.3694 0.0000
vt -0.7988 0.3694 0.0000
vt 0.0191 0.9825 0.0000
vt 0.0191 0.5115 0.0000
vt -0.5360 0.5115 0.0000
vt -0.5360 0.9825 0.0000
vt 1.0035 0.9930 0.0000
vt 1.0035 0.5220 0.0000
vt 0.4765 0.5220 0.0000
vt 0.4765 0.9930 0.0000
vt 0.0385 0.9475 0.0000
vt 0.4290 0.9475 0.0000
vt 0.4290 0.5360 0.0000
vt 0.0385 0.5360 0.0000
vt 0.9979 0.9883 0.0000
vt 0.9979 0.5207 0.0000
vt 0.4901 0.5207 0.0000
vt 0.4901 0.9883 0.0000
vt -0.0003 0.9907 0.0000
vt 0.0009 0.5175 0.0000
vt -0.5092 0.5173 0.0000
vt -0.5105 0.9905 0.0000
# 32 texture coords

g Box107
usemtl _shu0_shu0Material__36
s 2
f 1/1/1 2/2/1 3/3/1 
f 3/3/1 4/4/1 1/1/1 
s 4
f 5/5/2 6/6/2 7/7/2 
f 7/7/2 8/8/2 5/5/2 
s 8
f 6/2/3 4/3/3 3/4/3 
f 3/4/3 7/1/3 6/2/3 
s 16
f 5/2/4 1/3/4 4/4/4 
f 4/4/4 6/1/4 5/2/4 
s 32
f 8/2/5 2/3/5 1/4/5 
f 1/4/5 5/1/5 8/2/5 
s 64
f 7/2/6 3/3/6 2/4/6 
f 2/4/6 8/1/6 7/2/6 
usemtl _shu0_shu0Material__27
s 1
f 9/9/6 10/10/6 11/11/6 
f 9/9/6 11/11/6 12/12/6 
s 4
f 10/9/1 13/10/1 14/11/1 
f 10/9/1 14/11/1 11/12/1 
s 2
f 13/9/4 15/10/4 16/11/4 
f 13/9/4 16/11/4 14/12/4 
s 4
f 15/9/2 9/10/2 12/11/2 
f 15/9/2 12/11/2 16/12/2 
s 16
f 13/9/3 9/11/3 15/12/3 
f 10/12/3 9/9/3 13/11/3 
f 14/11/5 16/12/5 12/9/5 
f 11/10/5 14/11/5 12/9/5 
usemtl _shu0_shu0Material__30
s 2
f 17/1/1 18/2/1 19/3/1 
f 19/3/1 20/4/1 17/1/1 
s 4
f 21/13/2 22/14/2 23/15/2 
f 23/15/2 24/16/2 21/13/2 
s 8
f 22/2/7 20/3/7 19/4/7 
f 19/4/7 23/1/7 22/2/7 
s 16
f 21/2/8 17/3/8 20/4/8 
f 20/4/8 22/1/8 21/2/8 
s 32
f 24/2/9 18/3/9 17/4/9 
f 17/4/9 21/1/9 24/2/9 
s 64
f 23/17/10 19/18/10 18/19/10 
f 18/19/10 24/20/10 23/17/10 
usemtl _shu0_shu0Material__31
s 2
f 25/21/1 26/22/1 27/23/1 
f 27/23/1 28/24/1 25/21/1 
s 4
f 29/25/2 30/26/2 31/27/2 
f 31/27/2 32/28/2 29/25/2 
s 8
f 30/22/11 28/23/11 27/24/11 
f 27/24/11 31/21/11 30/22/11 
s 16
f 29/22/12 25/23/12 28/24/12 
f 28/24/12 30/21/12 29/22/12 
s 32
f 32/22/13 26/23/13 25/24/13 
f 25/24/13 29/21/13 32/22/13 
s 64
f 31/22/14 27/23/14 26/24/14 
f 26/24/14 32/21/14 31/22/14 
usemtl _shu0_shu0Material__32
s 2
f 33/1/1 34/2/1 35/3/1 
f 35/3/1 36/4/1 33/1/1 
s 4
f 37/5/2 38/6/2 39/7/2 
f 39/7/2 40/8/2 37/5/2 
s 8
f 38/2/3 36/3/3 35/4/3 
f 35/4/3 39/1/3 38/2/3 
s 16
f 37/2/4 33/3/4 36/4/4 
f 36/4/4 38/1/4 37/2/4 
s 32
f 40/2/5 34/3/5 33/4/5 
f 33/4/5 37/1/5 40/2/5 
s 64
f 39/2/6 35/3/6 34/4/6 
f 34/4/6 40/1/6 39/2/6 
usemtl _shu0_shu0Material__33
s 2
f 41/1/1 42/2/1 43/3/1 
f 43/3/1 44/4/1 41/1/1 
s 4
f 45/5/2 46/6/2 47/7/2 
f 47/7/2 48/8/2 45/5/2 
s 8
f 46/2/3 44/3/3 43/4/3 
f 43/4/3 47/1/3 46/2/3 
s 16
f 45/2/4 41/3/4 44/4/4 
f 44/4/4 46/1/4 45/2/4 
s 32
f 48/2/5 42/3/5 41/4/5 
f 41/4/5 45/1/5 48/2/5 
s 64
f 47/2/6 43/3/6 42/4/6 
f 42/4/6 48/1/6 47/2/6 
usemtl _shu0_shu0Material__29
s 2
f 49/1/1 50/2/1 51/3/1 
f 51/3/1 52/4/1 49/1/1 
s 4
f 53/5/2 54/6/2 55/7/2 
f 55/7/2 56/8/2 53/5/2 
s 8
f 54/2/3 52/3/3 51/4/3 
f 51/4/3 55/1/3 54/2/3 
s 16
f 53/2/4 49/3/4 52/4/4 
f 52/4/4 54/1/4 53/2/4 
s 32
f 56/2/5 50/3/5 49/4/5 
f 49/4/5 53/1/5 56/2/5 
s 64
f 55/2/6 51/3/6 50/4/6 
f 50/4/6 56/1/6 55/2/6 
usemtl _shu0_shu0Material__34
s 2
f 57/1/1 58/2/1 59/3/1 
f 59/3/1 60/4/1 57/1/1 
s 4
f 61/5/2 62/6/2 63/7/2 
f 63/7/2 64/8/2 61/5/2 
s 8
f 62/2/3 60/3/3 59/4/3 
f 59/4/3 63/1/3 62/2/3 
s 16
f 61/2/4 57/3/4 60/4/4 
f 60/4/4 62/1/4 61/2/4 
s 32
f 64/2/5 58/3/5 57/4/5 
f 57/4/5 61/1/5 64/2/5 
s 64
f 63/2/6 59/3/6 58/4/6 
f 58/4/6 64/1/6 63/2/6 
usemtl _shu0_shu0Material__35
s 2
f 65/1/1 66/2/1 67/3/1 
f 67/3/1 68/4/1 65/1/1 
s 4
f 69/5/2 70/6/2 71/7/2 
f 71/7/2 72/8/2 69/5/2 
s 8
f 70/2/3 68/3/3 67/4/3 
f 67/4/3 71/1/3 70/2/3 
s 16
f 69/2/4 65/3/4 68/4/4 
f 68/4/4 70/1/4 69/2/4 
s 32
f 72/2/5 66/3/5 65/4/5 
f 65/4/5 69/1/5 72/2/5 
s 64
f 71/2/6 67/3/6 66/4/6 
f 66/4/6 72/1/6 71/2/6 
usemtl _shu0_shu0Material__37
s 2
f 73/29/1 74/30/1 75/31/1 
f 75/31/1 76/32/1 73/29/1 
s 4
f 77/30/2 78/31/2 79/32/2 
f 79/32/2 80/29/2 77/30/2 
s 8
f 78/30/15 76/31/15 75/32/15 
f 75/32/15 79/29/15 78/30/15 
s 16
f 77/30/16 73/31/16 76/32/16 
f 76/32/16 78/29/16 77/30/16 
s 32
f 80/30/17 74/31/17 73/32/17 
f 73/32/17 77/29/17 80/30/17 
s 64
f 79/30/18 75/31/18 74/32/18 
f 74/32/18 80/29/18 79/30/18 
# 120 faces

