# 3ds Max Wavefront OBJ Exporter v0.97b - (c)2007 guruware
# 创建的文件:02.07.2015 19:22:03

mtllib skybox.mtl

#
# object Box01
#

v  -37.0068 0.0000 -54.9883
v  -37.0068 0.0000 35.0117
v  52.9932 0.0000 -54.9883
v  52.9932 0.0000 35.0117
v  52.9932 90.0000 35.0117
v  -37.0068 90.0000 35.0117
v  52.9932 90.0000 -54.9883
v  -37.0068 90.0000 -54.9883
# 8 vertices

vn 0.0000 1.0000 -0.0000
vn 0.0000 -1.0000 -0.0000
vn 0.0000 0.0000 -1.0000
vn -1.0000 0.0000 -0.0000
vn 0.0000 0.0000 1.0000
vn 1.0000 0.0000 -0.0000
# 6 vertex normals

vt -0.7710 0.2696 0.0000
vt -0.7710 0.0415 0.0000
vt -0.9824 0.2696 0.0000
vt -0.9824 0.0415 0.0000
vt 0.2532 0.4772 0.0000
vt 0.0062 0.4772 0.0000
vt 0.2532 0.9876 0.0000
vt 0.0062 0.9876 0.0000
vt 1.9894 0.4573 0.0000
vt 1.5000 0.4573 0.0000
vt 1.9894 0.9854 0.0000
vt 1.5000 0.9854 0.0000
vt -0.3650 0.5714 0.0000
vt -0.7253 0.5714 0.0000
vt -0.3650 0.9364 0.0000
vt -0.7253 0.9364 0.0000
vt 0.9905 0.0417 0.0000
vt 0.5586 0.0417 0.0000
vt 0.9905 0.5319 0.0000
vt 0.5586 0.5319 0.0000
vt 0.6717 1.0484 0.0000
vt 0.2725 1.0484 0.0000
vt 0.6717 1.5482 0.0000
vt 0.2725 1.5482 0.0000
# 24 texture coords

g Box01
usemtl Material__25
s 2
f 1/1/1 2/2/1 3/3/1 
f 4/4/1 3/3/1 2/2/1 
s 4
f 5/5/2 6/6/2 7/7/2 
f 8/8/2 7/7/2 6/6/2 
s 8
f 4/9/3 2/10/3 5/11/3 
f 6/12/3 5/11/3 2/10/3 
s 16
f 3/13/4 4/14/4 7/15/4 
f 5/16/4 7/15/4 4/14/4 
s 32
f 1/17/5 3/18/5 8/19/5 
f 7/20/5 8/19/5 3/18/5 
s 64
f 2/21/6 1/22/6 6/23/6 
f 8/24/6 6/23/6 1/22/6 
# 12 faces

