# Created by DisUnity v0.3.1
v -0.30711833 0.06971264 -0.94906247
v -1.0164707 0.06971264 0.027276931
v -0.5312897 6.2548094 0.027277047
v -0.15718922 6.3166113 -0.4975195
v 0.84063727 0.06971264 -0.576134
v 0.44811794 6.4166107 -0.29203558
v 0.84063727 0.069708824 0.63068783
v 0.44811794 6.4166107 0.34658968
v -0.30711848 0.06971264 1.0036163
v -0.15718931 6.3166113 0.54393584
v -0.18893111 12.264773 -0.60773647
v -0.6502957 12.267029 0.027277164
v 0.6003475 12.448295 -0.36518297
v 0.6003475 12.448295 0.41973707
v -0.18893132 12.264773 0.6622907
v 0.83488005 18.58105 -2.015578
v -8.974894E-9 18.703316 -1.8933126
v -3.42734E-8 19.25351 4.0740633E-7
v 1.3387744 18.703316 -1.3387742
v -2.3843313E-8 17.80206 -3.1053457
v 1.2128009 17.771492 -2.92796
v 2.1958113 17.80206 -2.1958106
v 2.0155785 18.58105 -0.83487946
v 1.8933129 18.703316 4.9078153E-7
v 2.9279604 17.771492 -1.2128004
v 3.1053462 17.80206 6.1005994E-7
v 2.0155783 18.58105 0.83488053
v 1.3387743 18.703316 1.3387752
v 2.9279602 17.771492 1.2128016
v 2.1958108 17.80206 2.195812
v 0.83487976 18.58105 2.015579
v -1.05610525E-8 18.703316 1.8933135
v 1.2128006 17.771492 2.9279609
v -2.9802322E-8 17.80206 3.1053464
v -0.8348797 18.58105 2.015579
v -1.3387743 18.703316 1.3387752
v -1.2128006 17.771492 2.9279609
v -2.1958106 17.80206 2.195812
v -2.015578 18.58105 0.8348807
v -1.8933132 18.703316 8.953648E-7
v -2.92796 17.771492 1.2128019
v -3.105346 17.80206 1.2776327E-6
v -2.0155787 18.58105 -0.8348788
v -1.338775 18.703316 -1.3387736
v -2.9279609 17.771492 -1.2127994
v -2.195812 17.80206 -2.19581
v -0.8348802 18.58105 -2.0155778
v -1.2128013 17.771492 -2.9279594
v -1.5116836 16.320942 3.649528
v -2.5494955E-8 16.320942 3.9626079
v 1.5116835 16.320942 3.649528
v -2.9802322E-8 14.549894 4.3025465
v 1.6413653 14.549894 3.962608
v 3.0423589 14.549894 3.0423598
v 2.8019862 16.320942 2.8019874
v 3.6495273 16.320942 1.5116845
v 3.9626071 14.549894 1.6413664
v 4.3025446 14.549894 6.7562723E-7
v 3.9626071 16.320942 6.479495E-7
v 3.6495273 16.320942 -1.5116832
v 3.9626071 14.549894 -1.6413652
v 3.0423594 14.549894 -3.0423586
v 2.8019867 16.320942 -2.8019862
v 1.5116838 16.320942 -3.6495268
v 1.6413659 14.549894 -3.9626067
v -1.19216566E-8 14.549894 -4.302544
v -2.5764166E-8 16.320942 -3.9626067
v -1.5116844 16.320942 -3.6495261
v -1.6413662 14.549894 -3.962606
v -3.04236 14.549894 -3.0423572
v -2.8019876 16.320942 -2.801985
v -3.6495278 16.320942 -1.511682
v -3.9626079 14.549894 -1.6413639
v -4.3025455 14.549894 1.6531412E-6
v -3.9626074 16.320942 1.5358128E-6
v -3.649527 16.320942 1.511685
v -3.962607 14.549894 1.641367
v -3.0423584 14.549894 3.0423598
v -2.8019862 16.320942 2.8019874
v -1.6413655 14.549894 3.962608
v -1.5116836 12.778847 3.649528
v -4.933827E-8 12.778847 3.9626079
v 1.5116835 12.778847 3.649528
v -1.19216566E-8 11.545386 3.1053464
v 1.2128006 11.526422 2.9279609
v 2.1958108 11.545386 2.195812
v 2.8019862 12.778847 2.8019874
v 3.6495273 12.778847 1.5116845
v 2.9279602 11.526422 1.2128015
v 3.1053462 11.545386 5.802576E-7
v 3.9626071 12.778847 6.479495E-7
v 3.6495273 12.778847 -1.5116832
v 2.9279604 11.526422 -1.2128004
v 2.1958113 11.545386 -2.1958106
v 2.8019867 12.778847 -2.8019862
v 1.5116838 12.778847 -3.6495268
v 1.2128009 11.526422 -2.92796
v -2.3843313E-8 11.545386 -3.1053457
v -2.5764166E-8 12.778847 -3.9626067
v -1.5116844 12.778847 -3.6495261
v -1.2128013 11.526422 -2.9279594
v -2.195812 11.545386 -2.19581
v -2.8019876 12.778847 -2.801985
v -3.6495278 12.778847 -1.511682
v -2.9279609 11.526422 -1.2127994
v -3.105346 11.545386 1.2776327E-6
v -3.9626074 12.778847 1.5358128E-6
v -3.649527 12.778847 1.511685
v -2.92796 11.526422 1.2128019
v -2.1958106 11.545386 2.195812
v -2.8019862 12.778847 2.8019874
v -1.2128007 11.526422 2.9279609
v -0.8348797 11.311242 2.015579
v -1.3387743 11.387102 1.3387752
v -2.8314389E-8 11.728476 4.4018816E-7
v -1.05610525E-8 11.387102 1.8933135
v 0.83487976 11.311242 2.015579
v 1.3387743 11.387102 1.338775
v 2.0155783 11.311242 0.8348804
v 1.8933129 11.387102 4.799331E-7
v 2.0155785 11.311242 -0.83487946
v 1.3387744 11.387102 -1.3387742
v 0.83488005 11.311242 -2.015578
v -8.974894E-9 11.387102 -1.8933126
v -0.8348802 11.311242 -2.0155778
v -1.338775 11.387102 -1.3387736
v -2.0155787 11.311242 -0.8348788
v -1.8933132 11.387102 9.083524E-7
v -2.015578 11.311242 0.8348807
vn -0.5273437 0.07445905 -0.84638315
vn -0.96978146 0.075756826 0.23191561
vn -0.9722433 0.02803991 -0.23228581
vn -0.07807158 0.026668653 -0.99659103
vn 0.6471171 0.07384487 -0.758806
vn 0.92534024 0.022864344 -0.37844774
vn 0.9220963 0.07402746 0.37981346
vn 0.64528996 0.02487014 0.7635329
vn -0.079512954 0.074701354 0.9940309
vn -0.52580094 0.027879199 0.85015064
vn -0.52924734 -0.018864043 -0.84825784
vn -0.97173125 -0.019233672 0.23530489
vn 0.64867723 -0.024406493 -0.7606722
vn 0.9230498 -0.027948994 0.38366374
vn -0.07950011 -0.020929307 0.9966151
vn 0.19767253 0.85626113 -0.4772236
vn 0.0 0.8904461 -0.4550887
vn 0.0 1.0 0.0
vn 0.32179633 0.8904461 -0.32179633
vn 0.0 0.6289994 -0.77740574
vn 0.30119148 0.616888 -0.7271402
vn 0.54970884 0.6289996 -0.5497088
vn 0.47722366 0.85626113 -0.19767253
vn 0.4550886 0.8904461 0.0
vn 0.72714025 0.616888 -0.30119142
vn 0.7774057 0.62899953 0.0
vn 0.47722355 0.8562612 0.19767258
vn 0.32179624 0.8904461 0.3217963
vn 0.7271402 0.616888 0.30119148
vn 0.5497088 0.6289996 0.5497088
vn 0.19767247 0.85626113 0.47722366
vn 0.0 0.8904461 0.4550887
vn 0.30119133 0.616888 0.7271403
vn 0.0 0.6289996 0.7774057
vn -0.1976725 0.85626113 0.47722375
vn -0.32179627 0.8904461 0.32179636
vn -0.30119133 0.616888 0.7271403
vn -0.54970866 0.62899965 0.5497089
vn -0.47722355 0.8562612 0.19767264
vn -0.4550887 0.8904461 0.0
vn -0.7271401 0.616888 0.30119154
vn -0.7774056 0.6289996 0.0
vn -0.4772237 0.85626113 -0.19767235
vn -0.32179633 0.8904461 -0.32179624
vn -0.72714037 0.616888 -0.30119115
vn -0.54970884 0.62899953 -0.5497087
vn -0.19767265 0.85626113 -0.4772237
vn -0.3011916 0.6168879 -0.72714025
vn -0.3618262 0.32562914 0.87352586
vn 0.0 0.3321432 0.94322896
vn 0.3618262 0.32562914 0.87352586
vn 0.0 0.0 1.0
vn 0.38268343 0.0 0.9238795
vn 0.70710677 0.0 0.70710677
vn 0.6669636 0.33214316 0.6669637
vn 0.8735259 0.32562897 0.3618263
vn 0.9238796 0.0 0.3826833
vn 1.0 0.0 0.0
vn 0.9432291 0.33214292 0.0
vn 0.873526 0.325629 -0.36182612
vn 0.9238796 0.0 -0.3826832
vn 0.7071068 0.0 -0.70710677
vn 0.66696364 0.3321432 -0.6669636
vn 0.3618262 0.32562897 -0.873526
vn 0.38268325 0.0 -0.9238796
vn 0.0 0.0 -1.0
vn 0.0 0.33214298 -0.9432291
vn -0.36182645 0.32562894 -0.87352586
vn -0.3826835 0.0 -0.9238795
vn -0.7071069 0.0 -0.70710665
vn -0.66696376 0.33214307 -0.6669635
vn -0.87352604 0.32562903 -0.36182594
vn -0.9238797 0.0 -0.38268313
vn -1.0 0.0 0.0
vn -0.94322896 0.33214316 0.0
vn -0.8735258 0.3256291 0.36182648
vn -0.92387944 0.0 0.38268366
vn -0.70710677 0.0 0.7071068
vn -0.66696346 0.3321431 0.66696376
vn -0.38268352 0.0 0.9238795
vn -0.35829565 -0.3512767 0.8650022
vn 0.0 -0.36079752 0.9326442
vn 0.3582956 -0.3512767 0.8650022
vn 0.0 -0.7884921 0.61504483
vn 0.24315827 -0.7721805 0.58703613
vn 0.43490237 -0.78849214 0.4349024
vn 0.65947896 -0.36079738 0.65947914
vn 0.86500233 -0.35127664 0.35829565
vn 0.587036 -0.77218044 0.24315839
vn 0.6150449 -0.7884921 0.0
vn 0.9326443 -0.36079717 0.0
vn 0.86500233 -0.35127664 -0.35829556
vn 0.5870361 -0.77218044 -0.24315834
vn 0.4349024 -0.78849214 -0.43490237
vn 0.659479 -0.36079744 -0.65947896
vn 0.35829562 -0.35127664 -0.86500233
vn 0.24315836 -0.77218044 -0.5870361
vn 0.0 -0.788492 -0.6150449
vn 0.0 -0.3607972 -0.9326443
vn -0.35829577 -0.35127655 -0.8650023
vn -0.2431585 -0.77218044 -0.5870361
vn -0.43490246 -0.7884921 -0.43490234
vn -0.65947914 -0.36079732 -0.6594789
vn -0.86500233 -0.35127664 -0.3582954
vn -0.5870362 -0.77218044 -0.2431581
vn -0.6150448 -0.78849214 0.0
vn -0.93264425 -0.36079738 0.0
vn -0.86500216 -0.35127673 0.35829592
vn -0.587036 -0.7721805 0.24315847
vn -0.43490222 -0.78849214 0.4349024
vn -0.6594789 -0.36079735 0.6594792
vn -0.24315831 -0.7721805 0.58703613
vn -0.013371467 -0.99938935 0.032281585
vn 0.017518975 -0.99969304 -0.017518975
vn 0.0 -1.0 0.0
vn 0.0 -0.99969304 -0.024775583
vn 0.013371464 -0.99938935 0.03228159
vn -0.017518982 -0.99969304 -0.017518973
vn 0.032281555 -0.99938935 0.013371472
vn -0.024775606 -0.99969304 0.0
vn 0.032281574 -0.99938935 -0.013371482
vn -0.017518973 -0.99969304 0.017518971
vn 0.013371482 -0.99938935 -0.032281566
vn 0.0 -0.99969304 0.0247756
vn -0.013371479 -0.99938935 -0.032281574
vn 0.017518993 -0.99969304 0.017518967
vn -0.032281585 -0.99938935 -0.013371454
vn 0.024775578 -0.99969304 0.0
vn -0.03228156 -0.99938935 0.013371474
vt 0.076873064 0.75451523
vt 0.11884737 0.75451523
vt 0.09013796 0.8134198
vt 0.06800145 0.8139684
vt 0.008957282 0.75451523
vt 0.032183785 0.8148562
vt 0.008957313 0.75451523
vt 0.032183785 0.8148562
vt 0.07687312 0.75451523
vt 0.06800148 0.8139684
vt 0.069879755 0.87027
vt 0.09717995 0.87029
vt 0.023175992 0.87189925
vt 0.023176024 0.87189925
vt 0.069879785 0.87027
vt 0.17700963 0.85680914
vt 0.1864307 0.85845345
vt 0.18643071 0.86585283
vt 0.17132351 0.85845345
vt 0.1864307 0.84633267
vt 0.17274502 0.84592164
vt 0.16165239 0.8463328
vt 0.16368619 0.85680914
vt 0.16010083 0.85845345
vt 0.15339056 0.84592164
vt 0.14642383 0.8463328
vt 0.16368622 0.85680914
vt 0.17132351 0.85845345
vt 0.15339059 0.84592164
vt 0.1616524 0.8463328
vt 0.17700963 0.85680914
vt 0.18643071 0.85845345
vt 0.17274505 0.84592164
vt 0.18643071 0.84633267
vt 0.19585177 0.85680914
vt 0.20153792 0.85845345
vt 0.20011638 0.84592164
vt 0.211209 0.84633267
vt 0.20917521 0.85680914
vt 0.21440752 0.85845345
vt 0.21947087 0.84592164
vt 0.22808453 0.84633267
vt 0.20917521 0.85680914
vt 0.20153792 0.85845345
vt 0.21947087 0.84592164
vt 0.211209 0.84633267
vt 0.19585177 0.85680914
vt 0.20011638 0.84592164
vt 0.20348907 0.82641363
vt 0.18643071 0.82641363
vt 0.16937234 0.82641363
vt 0.18643071 0.8025953
vt 0.16790895 0.8025953
vt 0.15209965 0.8025953
vt 0.1548121 0.82641363
vt 0.14524813 0.82641363
vt 0.14171526 0.8025953
vt 0.13291422 0.8025953
vt 0.1367502 0.82641363
vt 0.14524813 0.82641363
vt 0.1417152 0.8025953
vt 0.15209962 0.8025953
vt 0.15481208 0.82641363
vt 0.16937232 0.82641363
vt 0.16790892 0.8025953
vt 0.1864307 0.8025953
vt 0.1864307 0.82641363
vt 0.20348907 0.82641363
vt 0.20495248 0.8025953
vt 0.22076178 0.8025953
vt 0.21804932 0.82641363
vt 0.22761326 0.82641363
vt 0.23114617 0.80259526
vt 0.24159415 0.80259526
vt 0.23775817 0.82641363
vt 0.22761326 0.82641363
vt 0.23114617 0.8025953
vt 0.22076178 0.8025953
vt 0.21804932 0.82641363
vt 0.20495248 0.8025953
vt 0.20348907 0.77877706
vt 0.18643071 0.77877706
vt 0.16937232 0.77877706
vt 0.1864307 0.76218855
vt 0.17274502 0.7619335
vt 0.16165239 0.76218855
vt 0.1548121 0.77877706
vt 0.14524813 0.77877706
vt 0.15339056 0.7619335
vt 0.1464238 0.76218855
vt 0.13675015 0.77877706
vt 0.14524813 0.77877706
vt 0.15339053 0.7619335
vt 0.16165236 0.76218855
vt 0.15481207 0.77877706
vt 0.16937229 0.77877706
vt 0.17274499 0.7619335
vt 0.1864307 0.76218855
vt 0.1864307 0.77877706
vt 0.20348907 0.77877706
vt 0.20011634 0.7619335
vt 0.211209 0.76218855
vt 0.21804932 0.77877706
vt 0.22761326 0.77877706
vt 0.21947087 0.7619335
vt 0.22808453 0.76218855
vt 0.23775817 0.77877706
vt 0.22761326 0.77877706
vt 0.21947087 0.7619335
vt 0.211209 0.76218855
vt 0.21804932 0.77877706
vt 0.20011638 0.7619335
vt 0.19585177 0.7768653
vt 0.20153792 0.7778855
vt 0.1864307 0.78540313
vt 0.1864307 0.7778855
vt 0.17700963 0.7768653
vt 0.17132351 0.7778855
vt 0.16368619 0.7768653
vt 0.16506588 0.7778855
vt 0.16368619 0.7768653
vt 0.17132351 0.7778855
vt 0.1770096 0.7768653
vt 0.1864307 0.7778855
vt 0.19585174 0.7768653
vt 0.20153789 0.7778855
vt 0.20917517 0.7768653
vt 0.20779547 0.7778855
vt 0.20917521 0.7768653

o Sphere01
s 1
usemtl Sphere01
f 1/1/1 2/2/2 3/3/3
f 3/3/3 4/4/4 1/1/1
f 5/5/5 1/1/1 4/4/4
f 4/4/4 6/6/6 5/5/5
f 7/7/7 5/5/5 6/6/6
f 6/6/6 8/8/8 7/7/7
f 9/9/9 7/7/7 8/8/8
f 8/8/8 10/10/10 9/9/9
f 10/10/10 3/3/3 2/2/2
f 2/2/2 9/9/9 10/10/10
f 11/11/11 4/4/4 3/3/3
f 3/3/3 12/12/12 11/11/11
f 12/12/12 3/3/3 10/10/10
f 4/4/4 11/11/11 13/13/13
f 13/13/13 6/6/6 4/4/4
f 6/6/6 13/13/13 14/14/14
f 14/14/14 8/8/8 6/6/6
f 8/8/8 14/14/14 15/15/15
f 15/15/15 10/10/10 8/8/8
f 10/10/10 15/15/15 12/12/12
f 16/16/16 17/17/17 18/18/18
f 18/18/18 19/19/19 16/16/16
f 20/20/20 17/17/17 16/16/16
f 16/16/16 21/21/21 20/20/20
f 16/16/16 19/19/19 22/22/22
f 22/22/22 21/21/21 16/16/16
f 23/23/23 19/19/19 18/18/18
f 22/22/22 19/19/19 23/23/23
f 18/18/18 24/24/24 23/23/23
f 23/23/23 25/25/25 22/22/22
f 23/23/23 24/24/24 26/26/26
f 26/26/26 25/25/25 23/23/23
f 27/27/27 24/24/24 18/18/18
f 26/26/26 24/24/24 27/27/27
f 18/18/18 28/28/28 27/27/27
f 27/27/27 29/29/29 26/26/26
f 27/27/27 28/28/28 30/30/30
f 30/30/30 29/29/29 27/27/27
f 31/31/31 28/28/28 18/18/18
f 30/30/30 28/28/28 31/31/31
f 18/18/18 32/32/32 31/31/31
f 31/31/31 33/33/33 30/30/30
f 31/31/31 32/32/32 34/34/34
f 34/34/34 33/33/33 31/31/31
f 34/34/34 32/32/32 35/35/35
f 35/35/35 32/32/32 18/18/18
f 18/18/18 36/36/36 35/35/35
f 35/35/35 37/37/37 34/34/34
f 35/35/35 36/36/36 38/38/38
f 38/38/38 37/37/37 35/35/35
f 39/39/39 36/36/36 18/18/18
f 38/38/38 36/36/36 39/39/39
f 18/18/18 40/40/40 39/39/39
f 39/39/39 41/41/41 38/38/38
f 39/39/39 40/40/40 42/42/42
f 42/42/42 41/41/41 39/39/39
f 43/43/43 40/40/40 18/18/18
f 42/42/42 40/40/40 43/43/43
f 18/18/18 44/44/44 43/43/43
f 43/43/43 45/45/45 42/42/42
f 43/43/43 44/44/44 46/46/46
f 46/46/46 45/45/45 43/43/43
f 47/47/47 44/44/44 18/18/18
f 46/46/46 44/44/44 47/47/47
f 18/18/18 17/17/17 47/47/47
f 47/47/47 48/48/48 46/46/46
f 47/47/47 17/17/17 20/20/20
f 20/20/20 48/48/48 47/47/47
f 49/49/49 37/37/37 38/38/38
f 34/34/34 37/37/37 49/49/49
f 49/49/49 50/50/50 34/34/34
f 34/34/34 50/50/50 51/51/51
f 51/51/51 50/50/50 52/52/52
f 52/52/52 50/50/50 49/49/49
f 52/52/52 53/53/53 51/51/51
f 51/51/51 53/53/53 54/54/54
f 54/54/54 55/55/55 51/51/51
f 56/56/56 55/55/55 54/54/54
f 54/54/54 57/57/57 56/56/56
f 56/56/56 57/57/57 58/58/58
f 58/58/58 59/59/59 56/56/56
f 60/60/60 59/59/59 58/58/58
f 58/58/58 61/61/61 60/60/60
f 60/60/60 61/61/61 62/62/62
f 62/62/62 63/63/63 60/60/60
f 64/64/64 63/63/63 62/62/62
f 62/62/62 65/65/65 64/64/64
f 64/64/64 65/65/65 66/66/66
f 66/66/66 67/67/67 64/64/64
f 64/64/64 67/67/67 20/20/20
f 20/20/20 21/21/21 64/64/64
f 64/64/64 21/21/21 22/22/22
f 22/22/22 63/63/63 64/64/64
f 60/60/60 63/63/63 22/22/22
f 22/22/22 25/25/25 60/60/60
f 60/60/60 25/25/25 26/26/26
f 26/26/26 59/59/59 60/60/60
f 56/56/56 59/59/59 26/26/26
f 26/26/26 29/29/29 56/56/56
f 56/56/56 29/29/29 30/30/30
f 30/30/30 55/55/55 56/56/56
f 51/51/51 55/55/55 30/30/30
f 30/30/30 33/33/33 51/51/51
f 51/51/51 33/33/33 34/34/34
f 68/68/68 67/67/67 66/66/66
f 20/20/20 67/67/67 68/68/68
f 66/66/66 69/69/69 68/68/68
f 68/68/68 69/69/69 70/70/70
f 70/70/70 71/71/71 68/68/68
f 72/72/72 71/71/71 70/70/70
f 70/70/70 73/73/73 72/72/72
f 72/72/72 73/73/73 74/74/74
f 74/74/74 75/75/75 72/72/72
f 76/76/76 75/75/75 74/74/74
f 74/74/74 77/77/77 76/76/76
f 76/76/76 77/77/77 78/78/78
f 78/78/78 79/79/79 76/76/76
f 49/49/49 79/79/79 78/78/78
f 78/78/78 80/80/80 49/49/49
f 49/49/49 80/80/80 52/52/52
f 38/38/38 79/79/79 49/49/49
f 76/76/76 79/79/79 38/38/38
f 38/38/38 41/41/41 76/76/76
f 76/76/76 41/41/41 42/42/42
f 42/42/42 75/75/75 76/76/76
f 72/72/72 75/75/75 42/42/42
f 42/42/42 45/45/45 72/72/72
f 72/72/72 45/45/45 46/46/46
f 46/46/46 71/71/71 72/72/72
f 68/68/68 71/71/71 46/46/46
f 46/46/46 48/48/48 68/68/68
f 68/68/68 48/48/48 20/20/20
f 52/52/52 80/80/80 81/81/81
f 81/81/81 80/80/80 78/78/78
f 81/81/81 82/82/82 52/52/52
f 52/52/52 82/82/82 83/83/83
f 83/83/83 82/82/82 84/84/84
f 84/84/84 82/82/82 81/81/81
f 84/84/84 85/85/85 83/83/83
f 83/83/83 85/85/85 86/86/86
f 86/86/86 87/87/87 83/83/83
f 88/88/88 87/87/87 86/86/86
f 86/86/86 89/89/89 88/88/88
f 88/88/88 89/89/89 90/90/90
f 90/90/90 91/91/91 88/88/88
f 92/92/92 91/91/91 90/90/90
f 90/90/90 93/93/93 92/92/92
f 92/92/92 93/93/93 94/94/94
f 94/94/94 95/95/95 92/92/92
f 96/96/96 95/95/95 94/94/94
f 94/94/94 97/97/97 96/96/96
f 96/96/96 97/97/97 98/98/98
f 98/98/98 99/99/99 96/96/96
f 96/96/96 99/99/99 66/66/66
f 66/66/66 65/65/65 96/96/96
f 96/96/96 65/65/65 62/62/62
f 62/62/62 95/95/95 96/96/96
f 92/92/92 95/95/95 62/62/62
f 62/62/62 61/61/61 92/92/92
f 92/92/92 61/61/61 58/58/58
f 58/58/58 91/91/91 92/92/92
f 88/88/88 91/91/91 58/58/58
f 58/58/58 57/57/57 88/88/88
f 88/88/88 57/57/57 54/54/54
f 54/54/54 87/87/87 88/88/88
f 83/83/83 87/87/87 54/54/54
f 54/54/54 53/53/53 83/83/83
f 83/83/83 53/53/53 52/52/52
f 100/100/100 99/99/99 98/98/98
f 66/66/66 99/99/99 100/100/100
f 98/98/98 101/101/101 100/100/100
f 100/100/100 101/101/101 102/102/102
f 102/102/102 103/103/103 100/100/100
f 104/104/104 103/103/103 102/102/102
f 102/102/102 105/105/105 104/104/104
f 104/104/104 105/105/105 106/106/106
f 106/106/106 107/107/107 104/104/104
f 108/108/108 107/107/107 106/106/106
f 106/106/106 109/109/109 108/108/108
f 108/108/108 109/109/109 110/110/110
f 110/110/110 111/111/111 108/108/108
f 81/81/81 111/111/111 110/110/110
f 110/110/110 112/112/112 81/81/81
f 81/81/81 112/112/112 84/84/84
f 78/78/78 111/111/111 81/81/81
f 108/108/108 111/111/111 78/78/78
f 78/78/78 77/77/77 108/108/108
f 108/108/108 77/77/77 74/74/74
f 74/74/74 107/107/107 108/108/108
f 104/104/104 107/107/107 74/74/74
f 74/74/74 73/73/73 104/104/104
f 104/104/104 73/73/73 70/70/70
f 70/70/70 103/103/103 104/104/104
f 100/100/100 103/103/103 70/70/70
f 70/70/70 69/69/69 100/100/100
f 100/100/100 69/69/69 66/66/66
f 113/113/113 112/112/112 110/110/110
f 84/84/84 112/112/112 113/113/113
f 110/110/110 114/114/114 113/113/113
f 113/113/113 114/114/114 115/115/115
f 115/115/115 116/116/116 113/113/113
f 113/113/113 116/116/116 84/84/84
f 117/117/117 116/116/116 115/115/115
f 84/84/84 116/116/116 117/117/117
f 115/115/115 118/118/118 117/117/117
f 119/119/119 118/118/118 115/115/115
f 115/115/115 120/120/120 119/119/119
f 121/121/121 120/120/120 115/115/115
f 115/115/115 122/122/122 121/121/121
f 123/123/123 122/122/122 115/115/115
f 115/115/115 124/124/124 123/123/123
f 94/94/94 122/122/122 123/123/123
f 121/121/121 122/122/122 94/94/94
f 123/123/123 97/97/97 94/94/94
f 123/123/123 124/124/124 98/98/98
f 98/98/98 97/97/97 123/123/123
f 90/90/90 120/120/120 121/121/121
f 119/119/119 120/120/120 90/90/90
f 121/121/121 93/93/93 90/90/90
f 94/94/94 93/93/93 121/121/121
f 86/86/86 118/118/118 119/119/119
f 117/117/117 118/118/118 86/86/86
f 119/119/119 89/89/89 86/86/86
f 90/90/90 89/89/89 119/119/119
f 86/86/86 85/85/85 117/117/117
f 117/117/117 85/85/85 84/84/84
f 98/98/98 124/124/124 125/125/125
f 125/125/125 124/124/124 115/115/115
f 115/115/115 126/126/126 125/125/125
f 127/127/127 126/126/126 115/115/115
f 115/115/115 128/128/128 127/127/127
f 129/129/129 128/128/128 115/115/115
f 115/115/115 114/114/114 129/129/129
f 106/106/106 128/128/128 129/129/129
f 127/127/127 128/128/128 106/106/106
f 129/129/129 109/109/109 106/106/106
f 129/129/129 114/114/114 110/110/110
f 110/110/110 109/109/109 129/129/129
f 102/102/102 126/126/126 127/127/127
f 125/125/125 126/126/126 102/102/102
f 127/127/127 105/105/105 102/102/102
f 106/106/106 105/105/105 127/127/127
f 102/102/102 101/101/101 125/125/125
f 125/125/125 101/101/101 98/98/98

