# 3ds Max Wavefront OBJ Exporter v0.97b - (c)2007 guruware
# 创建的文件:04.05.2018 17:00:05

mtllib pm.mtl

#
# object Plane001
#

v  -120.0000 0.0000 -120.0000
v  -120.0000 0.0000 120.0000
v  120.0000 0.0000 -120.0000
v  120.0000 0.0000 120.0000
# 4 vertices

vn 0.0000 1.0000 -0.0000
# 1 vertex normals

vt 0.0000 1.0000 0.0000
vt 0.0000 0.0000 0.0000
vt 1.0000 1.0000 0.0000
vt 1.0000 0.0000 0.0000
# 4 texture coords

g Plane001
usemtl _pmdefault
s 1
f 1/1/1 2/2/1 3/3/1 
f 4/4/1 3/3/1 2/2/1 
# 2 faces

